<svg xmlns="http://www.w3.org/2000/svg" xmlns:xlink="http://www.w3.org/1999/xlink" width="500" zoomAndPan="magnify" viewBox="0 0 375 374.999991" height="500" preserveAspectRatio="xMidYMid meet" version="1.0"><defs><clipPath id="id1"><path d="M 3.125 148 L 94 148 L 94 312 L 3.125 312 Z M 3.125 148 " clip-rule="nonzero"/></clipPath><clipPath id="id2"><path d="M 284.246094 148 L 372.125 148 L 372.125 312 L 284.246094 312 Z M 284.246094 148 " clip-rule="nonzero"/></clipPath></defs><path fill="#ffffff" d="M 267.769531 230.304688 C 267.769531 275.296875 231.300781 311.78125 186.316406 311.78125 C 141.332031 311.78125 104.867188 275.296875 104.867188 230.304688 C 104.867188 185.304688 141.332031 148.828125 186.316406 148.828125 C 231.300781 148.828125 267.769531 185.304688 267.769531 230.304688 " fill-opacity="1" fill-rule="nonzero"/><path fill="#cccccc" d="M 237.308594 191.210938 C 237.308594 200.289062 229.953125 207.644531 220.878906 207.644531 C 211.804688 207.644531 204.449219 200.289062 204.449219 191.210938 C 204.449219 182.140625 211.804688 174.78125 220.878906 174.78125 C 229.953125 174.78125 237.308594 182.140625 237.308594 191.210938 " fill-opacity="1" fill-rule="nonzero"/><path fill="#cccccc" d="M 188.683594 268.207031 C 188.683594 280.238281 178.933594 289.996094 166.910156 289.996094 C 154.882812 289.996094 145.128906 280.238281 145.128906 268.207031 C 145.128906 256.179688 154.882812 246.425781 166.910156 246.425781 C 178.933594 246.425781 188.683594 256.179688 188.683594 268.207031 " fill-opacity="1" fill-rule="nonzero"/><path fill="#cccccc" d="M 248.277344 254.894531 C 248.277344 265.917969 239.339844 274.859375 228.320312 274.859375 C 217.292969 274.859375 208.359375 265.917969 208.359375 254.894531 C 208.359375 243.867188 217.292969 234.929688 228.320312 234.929688 C 239.339844 234.929688 248.277344 243.867188 248.277344 254.894531 " fill-opacity="1" fill-rule="nonzero"/><path fill="#cccccc" d="M 212.160156 226.03125 C 212.160156 231.921875 207.386719 236.695312 201.5 236.695312 C 195.613281 236.695312 190.839844 231.921875 190.839844 226.03125 C 190.839844 220.140625 195.613281 215.367188 201.5 215.367188 C 207.386719 215.367188 212.160156 220.140625 212.160156 226.03125 " fill-opacity="1" fill-rule="nonzero"/><path fill="#cccccc" d="M 253.863281 221.808594 C 253.863281 225.367188 250.980469 228.25 247.421875 228.25 C 243.867188 228.25 240.980469 225.367188 240.980469 221.808594 C 240.980469 218.25 243.867188 215.367188 247.421875 215.367188 C 250.980469 215.367188 253.863281 218.25 253.863281 221.808594 " fill-opacity="1" fill-rule="nonzero"/><path fill="#cccccc" d="M 198.445312 178.398438 C 198.445312 180.898438 196.417969 182.925781 193.914062 182.925781 C 191.414062 182.925781 189.386719 180.898438 189.386719 178.398438 C 189.386719 175.890625 191.414062 173.863281 193.914062 173.863281 C 196.417969 173.863281 198.445312 175.890625 198.445312 178.398438 " fill-opacity="1" fill-rule="nonzero"/><path fill="#cccccc" d="M 163.886719 170.503906 C 163.886719 172.113281 162.582031 173.417969 160.972656 173.417969 C 159.367188 173.417969 158.0625 172.113281 158.0625 170.503906 C 158.0625 168.894531 159.367188 167.589844 160.972656 167.589844 C 162.582031 167.589844 163.886719 168.894531 163.886719 170.503906 " fill-opacity="1" fill-rule="nonzero"/><path fill="#cccccc" d="M 167.855469 205.320312 C 167.855469 213.113281 161.539062 219.425781 153.75 219.425781 C 145.960938 219.425781 139.648438 213.113281 139.648438 205.320312 C 139.648438 197.527344 145.960938 191.210938 153.75 191.210938 C 161.539062 191.210938 167.855469 197.527344 167.855469 205.320312 " fill-opacity="1" fill-rule="nonzero"/><g clip-path="url(#id1)"><path fill="#ffffff" d="M 53 207.304688 L 30.527344 256.707031 L 53 256.707031 Z M 93.738281 267.128906 C 93.738281 272.882812 89.074219 277.546875 83.324219 277.546875 L 73.832031 277.546875 L 73.832031 301.355469 C 73.832031 307.113281 69.167969 311.78125 63.414062 311.78125 C 57.664062 311.78125 53 307.113281 53 301.355469 L 53 277.546875 L 14.339844 277.546875 C 10.796875 277.546875 7.496094 275.746094 5.582031 272.769531 C 3.664062 269.785156 3.390625 266.035156 4.859375 262.8125 L 53.933594 154.929688 C 55.960938 150.46875 60.828125 148.023438 65.621094 149.0625 C 70.414062 150.105469 73.832031 154.34375 73.832031 159.246094 L 73.832031 256.707031 L 83.324219 256.707031 C 89.074219 256.707031 93.742188 261.375 93.738281 267.128906 " fill-opacity="1" fill-rule="nonzero"/></g><g clip-path="url(#id2)"><path fill="#ffffff" d="M 333.433594 207.304688 L 310.960938 256.707031 L 333.433594 256.707031 Z M 374.175781 267.128906 C 374.175781 272.882812 369.511719 277.546875 363.757812 277.546875 L 354.265625 277.546875 L 354.265625 301.355469 C 354.265625 307.113281 349.601562 311.78125 343.847656 311.78125 C 338.09375 311.78125 333.433594 307.113281 333.433594 301.355469 L 333.433594 277.546875 L 294.777344 277.546875 C 291.234375 277.546875 287.933594 275.746094 286.015625 272.769531 C 284.101562 269.785156 283.824219 266.035156 285.292969 262.8125 L 334.367188 154.929688 C 336.398438 150.46875 341.261719 148.023438 346.054688 149.0625 C 350.847656 150.105469 354.265625 154.34375 354.265625 159.246094 L 354.265625 256.707031 L 363.757812 256.707031 C 369.511719 256.707031 374.175781 261.375 374.175781 267.128906 " fill-opacity="1" fill-rule="nonzero"/></g><path fill="#505050" d="M 215.425781 120.804688 C 215.425781 126.257812 211.003906 130.679688 205.550781 130.679688 L 169.667969 130.679688 C 164.214844 130.679688 159.792969 126.257812 159.792969 120.804688 L 159.792969 87.144531 C 159.792969 81.691406 164.214844 77.269531 169.667969 77.269531 L 205.550781 77.269531 C 211.003906 77.269531 215.425781 81.691406 215.425781 87.144531 L 215.425781 120.804688 " fill-opacity="1" fill-rule="nonzero"/><path fill="#ffffff" d="M 173.980469 133.21875 L 173.980469 153.46875 L 184.5 153.46875 L 184.5 141.46875 C 184.5 139.949219 185.730469 138.71875 187.25 138.71875 C 188.773438 138.71875 190.003906 139.949219 190.003906 141.46875 L 190.003906 153.46875 L 200.523438 153.46875 L 200.523438 133.21875 L 173.980469 133.21875 " fill-opacity="1" fill-rule="nonzero"/><path fill="#e1e2e3" d="M 184.5 153.632812 L 173.980469 153.632812 L 173.980469 147.519531 L 184.5 147.519531 L 184.5 153.632812 " fill-opacity="1" fill-rule="nonzero"/><path fill="#ecedee" d="M 180.296875 153.476562 L 177.886719 153.476562 L 177.886719 150.53125 C 177.886719 149.867188 178.429688 149.328125 179.09375 149.328125 C 179.757812 149.328125 180.296875 149.867188 180.296875 150.53125 L 180.296875 153.476562 " fill-opacity="1" fill-rule="nonzero"/><path fill="#d1d3d4" d="M 185.15625 152.257812 L 185.15625 157.632812 C 185.15625 158.074219 184.746094 158.433594 184.238281 158.433594 L 169.824219 158.433594 C 169.226562 158.433594 168.789062 157.945312 168.929688 157.441406 C 169.476562 155.515625 171.234375 151.460938 176.390625 151.460938 L 184.238281 151.460938 C 184.746094 151.460938 185.15625 151.816406 185.15625 152.257812 " fill-opacity="1" fill-rule="nonzero"/><path fill="#e1e2e3" d="M 200.527344 153.632812 L 190.007812 153.632812 L 190.007812 147.519531 L 200.527344 147.519531 L 200.527344 153.632812 " fill-opacity="1" fill-rule="nonzero"/><path fill="#e5e5e5" d="M 200.523438 147.25 L 199.6875 147.25 L 199.6875 133.21875 L 200.523438 133.21875 L 200.523438 147.25 " fill-opacity="1" fill-rule="nonzero"/><path fill="#e5e5e5" d="M 174.734375 147.25 L 173.894531 147.25 L 173.894531 133.21875 L 174.734375 133.21875 L 174.734375 147.25 " fill-opacity="1" fill-rule="nonzero"/><path fill="#d1d3d4" d="M 200.191406 147.980469 L 190.050781 147.980469 C 189.253906 147.980469 188.609375 147.332031 188.609375 146.539062 C 188.609375 145.742188 189.253906 145.09375 190.050781 145.09375 L 200.191406 145.09375 C 200.984375 145.09375 201.632812 145.742188 201.632812 146.539062 C 201.632812 147.332031 200.984375 147.980469 200.191406 147.980469 " fill-opacity="1" fill-rule="nonzero"/><path fill="#e5e6e7" d="M 192.4375 146.046875 C 192.4375 146.242188 192.277344 146.402344 192.082031 146.402344 L 189.738281 146.402344 C 189.542969 146.402344 189.386719 146.242188 189.386719 146.046875 C 189.386719 145.851562 189.542969 145.691406 189.738281 145.691406 L 192.082031 145.691406 C 192.277344 145.691406 192.4375 145.851562 192.4375 146.046875 " fill-opacity="1" fill-rule="nonzero"/><path fill="#e5e6e7" d="M 193.5625 146.046875 C 193.5625 146.242188 193.402344 146.402344 193.207031 146.402344 L 193.070312 146.402344 C 192.875 146.402344 192.714844 146.242188 192.714844 146.046875 C 192.714844 145.851562 192.875 145.691406 193.070312 145.691406 L 193.207031 145.691406 C 193.402344 145.691406 193.5625 145.851562 193.5625 146.046875 " fill-opacity="1" fill-rule="nonzero"/><path fill="#ecedee" d="M 196.324219 153.476562 L 193.914062 153.476562 L 193.914062 150.53125 C 193.914062 149.867188 194.457031 149.328125 195.121094 149.328125 C 195.785156 149.328125 196.324219 149.867188 196.324219 150.53125 L 196.324219 153.476562 " fill-opacity="1" fill-rule="nonzero"/><path fill="#d1d3d4" d="M 189.230469 151.941406 L 189.230469 157.59375 C 189.230469 158.054688 189.664062 158.433594 190.195312 158.433594 L 205.347656 158.433594 C 205.976562 158.433594 206.433594 157.921875 206.285156 157.390625 C 205.714844 155.371094 203.867188 151.105469 198.445312 151.105469 L 190.195312 151.105469 C 189.664062 151.105469 189.230469 151.476562 189.230469 151.941406 " fill-opacity="1" fill-rule="nonzero"/><path fill="#ecedee" d="M 201.5 153.621094 C 201.5 154.089844 201.121094 154.464844 200.652344 154.464844 C 200.1875 154.464844 199.808594 154.089844 199.808594 153.621094 C 199.808594 153.152344 200.1875 152.773438 200.652344 152.773438 C 201.121094 152.773438 201.5 153.152344 201.5 153.621094 " fill-opacity="1" fill-rule="nonzero"/><path fill="#ecedee" d="M 175.160156 153.621094 C 175.160156 154.089844 174.78125 154.464844 174.316406 154.464844 C 173.847656 154.464844 173.46875 154.089844 173.46875 153.621094 C 173.46875 153.152344 173.847656 152.773438 174.316406 152.773438 C 174.78125 152.773438 175.160156 153.152344 175.160156 153.621094 " fill-opacity="1" fill-rule="nonzero"/><path fill="#d1d3d4" d="M 184.164062 147.980469 L 174.023438 147.980469 C 173.226562 147.980469 172.582031 147.332031 172.582031 146.539062 C 172.582031 145.742188 173.226562 145.09375 174.023438 145.09375 L 184.164062 145.09375 C 184.957031 145.09375 185.601562 145.742188 185.601562 146.539062 C 185.601562 147.332031 184.957031 147.980469 184.164062 147.980469 " fill-opacity="1" fill-rule="nonzero"/><path fill="#e5e6e7" d="M 176.410156 146.046875 C 176.410156 146.242188 176.25 146.402344 176.050781 146.402344 L 173.710938 146.402344 C 173.515625 146.402344 173.355469 146.242188 173.355469 146.046875 C 173.355469 145.851562 173.515625 145.691406 173.710938 145.691406 L 176.050781 145.691406 C 176.25 145.691406 176.410156 145.851562 176.410156 146.046875 " fill-opacity="1" fill-rule="nonzero"/><path fill="#e5e6e7" d="M 177.535156 146.046875 C 177.535156 146.242188 177.375 146.402344 177.175781 146.402344 L 177.042969 146.402344 C 176.847656 146.402344 176.6875 146.242188 176.6875 146.046875 C 176.6875 145.851562 176.847656 145.691406 177.042969 145.691406 L 177.175781 145.691406 C 177.375 145.691406 177.535156 145.851562 177.535156 146.046875 " fill-opacity="1" fill-rule="nonzero"/><path fill="#444444" d="M 159.792969 98.144531 L 215.425781 98.144531 L 215.425781 93.679688 L 159.792969 93.679688 Z M 159.792969 98.144531 " fill-opacity="1" fill-rule="nonzero"/><path fill="#505050" d="M 159.792969 96.605469 L 215.425781 96.605469 L 215.425781 95.21875 L 159.792969 95.21875 Z M 159.792969 96.605469 " fill-opacity="1" fill-rule="nonzero"/><path fill="#717171" d="M 165.183594 90.238281 C 165.183594 90.953125 164.601562 91.53125 163.886719 91.53125 C 163.171875 91.53125 162.589844 90.953125 162.589844 90.238281 C 162.589844 89.523438 163.171875 88.941406 163.886719 88.941406 C 164.601562 88.941406 165.183594 89.523438 165.183594 90.238281 " fill-opacity="1" fill-rule="nonzero"/><path fill="#717171" d="M 212.625 90.238281 C 212.625 90.953125 212.042969 91.53125 211.332031 91.53125 C 210.613281 91.53125 210.039062 90.953125 210.039062 90.238281 C 210.039062 89.523438 210.613281 88.941406 211.332031 88.941406 C 212.042969 88.941406 212.625 89.523438 212.625 90.238281 " fill-opacity="1" fill-rule="nonzero"/><path fill="#717171" d="M 165.183594 100.972656 C 165.183594 101.683594 164.601562 102.265625 163.886719 102.265625 C 163.171875 102.265625 162.589844 101.683594 162.589844 100.972656 C 162.589844 100.257812 163.171875 99.675781 163.886719 99.675781 C 164.601562 99.675781 165.183594 100.257812 165.183594 100.972656 " fill-opacity="1" fill-rule="nonzero"/><path fill="#717171" d="M 212.625 100.972656 C 212.625 101.683594 212.042969 102.265625 211.332031 102.265625 C 210.613281 102.265625 210.039062 101.683594 210.039062 100.972656 C 210.039062 100.257812 210.613281 99.675781 211.332031 99.675781 C 212.042969 99.675781 212.625 100.257812 212.625 100.972656 " fill-opacity="1" fill-rule="nonzero"/><path fill="#ffffff" d="M 211.476562 117.574219 C 210.289062 117.574219 209.113281 117.144531 208.195312 116.3125 L 201.570312 110.34375 C 199.558594 108.53125 199.398438 105.425781 201.210938 103.414062 C 203.023438 101.402344 206.125 101.238281 208.140625 103.054688 L 212.371094 106.871094 L 219.5 103.625 C 221.96875 102.507812 224.878906 103.597656 226 106.0625 C 227.121094 108.53125 226.03125 111.4375 223.5625 112.5625 L 213.507812 117.136719 C 212.855469 117.429688 212.164062 117.574219 211.476562 117.574219 " fill-opacity="1" fill-rule="nonzero"/><path fill="#e5e5e5" d="M 224.078125 111.394531 L 214.023438 115.972656 C 213.371094 116.265625 212.679688 116.414062 211.988281 116.414062 C 210.800781 116.414062 209.625 115.976562 208.425781 114.867188 L 201.804688 108.898438 C 200.996094 108.199219 200.453125 106.835938 200.46875 105.476562 C 199.898438 107.257812 200.371094 109.289062 201.851562 110.625 L 208.476562 116.59375 C 209.390625 117.425781 210.566406 117.855469 211.757812 117.855469 C 212.445312 117.855469 213.136719 117.710938 213.789062 117.417969 L 223.84375 112.84375 C 225.636719 112.023438 226.695312 110.269531 226.714844 108.421875 C 226.304688 109.695312 225.390625 110.800781 224.078125 111.394531 " fill-opacity="1" fill-rule="nonzero"/><path fill="#e5e5e5" d="M 203.894531 128.914062 C 204.003906 128.496094 204.070312 128.066406 204.070312 127.617188 L 204.070312 101.601562 C 204.070312 98.851562 201.839844 96.621094 199.085938 96.621094 L 176.132812 96.621094 C 173.378906 96.621094 171.148438 98.851562 171.148438 101.601562 L 171.148438 127.617188 C 171.148438 128.066406 171.214844 128.496094 171.324219 128.914062 L 203.894531 128.914062 " fill-opacity="1" fill-rule="nonzero"/><path fill="#17a9cb" d="M 194.980469 117.828125 C 194.980469 120.21875 193.046875 122.152344 190.660156 122.152344 L 184.558594 122.152344 C 182.171875 122.152344 180.234375 120.21875 180.234375 117.828125 L 180.234375 115.433594 C 180.234375 113.046875 182.171875 111.113281 184.558594 111.113281 L 190.660156 111.113281 C 193.046875 111.113281 194.980469 113.046875 194.980469 115.433594 L 194.980469 117.828125 " fill-opacity="1" fill-rule="nonzero"/><path fill="#1494b2" d="M 193.117188 111.878906 C 193.746094 112.628906 194.125 113.597656 194.125 114.65625 L 194.125 117.050781 C 194.125 119.441406 192.191406 121.375 189.804688 121.375 L 183.707031 121.375 C 182.792969 121.375 181.945312 121.09375 181.25 120.609375 C 182.042969 121.554688 183.230469 122.152344 184.558594 122.152344 L 190.660156 122.152344 C 193.046875 122.152344 194.980469 120.21875 194.980469 117.828125 L 194.980469 115.433594 C 194.980469 113.960938 194.242188 112.65625 193.117188 111.878906 " fill-opacity="1" fill-rule="nonzero"/><path fill="#dfdfdf" d="M 191.34375 116.632812 C 191.34375 118.699219 189.675781 120.371094 187.609375 120.371094 C 185.546875 120.371094 183.875 118.699219 183.875 116.632812 C 183.875 114.570312 185.546875 112.898438 187.609375 112.898438 C 189.675781 112.898438 191.34375 114.570312 191.34375 116.632812 " fill-opacity="1" fill-rule="nonzero"/><path fill="#373737" d="M 190.433594 116.632812 C 190.433594 118.191406 189.167969 119.457031 187.609375 119.457031 C 186.050781 119.457031 184.785156 118.191406 184.785156 116.632812 C 184.785156 115.074219 186.050781 113.808594 187.609375 113.808594 C 189.167969 113.808594 190.433594 115.074219 190.433594 116.632812 " fill-opacity="1" fill-rule="nonzero"/><path fill="#636363" d="M 187.421875 116.03125 C 187.421875 116.515625 187.027344 116.910156 186.542969 116.910156 C 186.058594 116.910156 185.664062 116.515625 185.664062 116.03125 C 185.664062 115.542969 186.058594 115.148438 186.542969 115.148438 C 187.027344 115.148438 187.421875 115.542969 187.421875 116.03125 " fill-opacity="1" fill-rule="nonzero"/><path fill="#4bbcd7" d="M 182.144531 113.390625 C 182.144531 113.742188 182.429688 114.03125 182.78125 114.03125 C 183.136719 114.03125 183.421875 113.742188 183.421875 113.390625 C 183.421875 113.035156 183.136719 112.75 182.78125 112.75 C 182.429688 112.75 182.144531 113.035156 182.144531 113.390625 " fill-opacity="1" fill-rule="nonzero"/><path fill="#dfdfdf" d="M 184.785156 116.722656 C 184.785156 116.71875 184.785156 116.71875 184.785156 116.71875 C 184.785156 116.71875 184.785156 116.71875 184.785156 116.722656 M 184.785156 116.710938 C 184.785156 116.710938 184.785156 116.710938 184.785156 116.707031 C 184.785156 116.710938 184.785156 116.710938 184.785156 116.710938 M 184.785156 116.703125 C 184.785156 116.703125 184.785156 116.703125 184.785156 116.699219 C 184.785156 116.703125 184.785156 116.703125 184.785156 116.703125 M 184.785156 116.695312 C 184.785156 116.695312 184.785156 116.691406 184.785156 116.691406 C 184.785156 116.691406 184.785156 116.695312 184.785156 116.695312 M 184.785156 116.683594 C 184.785156 116.683594 184.785156 116.683594 184.785156 116.679688 C 184.785156 116.683594 184.785156 116.683594 184.785156 116.683594 M 184.785156 116.675781 C 184.785156 116.671875 184.785156 116.671875 184.785156 116.671875 C 184.785156 116.671875 184.785156 116.671875 184.785156 116.675781 M 184.785156 116.664062 C 184.785156 116.664062 184.785156 116.660156 184.785156 116.660156 C 184.785156 116.660156 184.785156 116.664062 184.785156 116.664062 M 184.785156 116.652344 C 184.785156 116.652344 184.785156 116.652344 184.785156 116.648438 C 184.785156 116.652344 184.785156 116.652344 184.785156 116.652344 M 184.785156 116.648438 C 184.785156 116.644531 184.785156 116.644531 184.785156 116.644531 C 184.785156 116.644531 184.785156 116.644531 184.785156 116.648438 M 187.699219 113.808594 C 187.699219 113.808594 187.699219 113.808594 187.695312 113.808594 C 187.699219 113.808594 187.699219 113.808594 187.699219 113.808594 M 187.679688 113.808594 C 187.675781 113.808594 187.675781 113.808594 187.675781 113.808594 C 187.675781 113.808594 187.675781 113.808594 187.679688 113.808594 M 187.671875 113.808594 C 187.671875 113.808594 187.667969 113.808594 187.667969 113.808594 C 187.667969 113.808594 187.671875 113.808594 187.671875 113.808594 M 187.664062 113.808594 C 187.660156 113.808594 187.660156 113.808594 187.660156 113.808594 C 187.660156 113.808594 187.660156 113.808594 187.664062 113.808594 M 187.652344 113.808594 C 187.648438 113.808594 187.648438 113.808594 187.648438 113.808594 C 187.648438 113.808594 187.648438 113.808594 187.652344 113.808594 M 187.640625 113.808594 C 187.640625 113.808594 187.636719 113.808594 187.636719 113.808594 C 187.636719 113.808594 187.640625 113.808594 187.640625 113.808594 M 187.632812 113.808594 C 187.628906 113.808594 187.628906 113.808594 187.628906 113.808594 C 187.628906 113.808594 187.628906 113.808594 187.632812 113.808594 M 187.621094 113.808594 C 187.621094 113.808594 187.617188 113.808594 187.617188 113.808594 C 187.617188 113.808594 187.621094 113.808594 187.621094 113.808594 " fill-opacity="1" fill-rule="nonzero"/><path fill="#595959" d="M 185.746094 118.753906 C 185.179688 118.257812 184.8125 117.535156 184.785156 116.722656 C 184.785156 116.71875 184.785156 116.71875 184.785156 116.71875 C 184.785156 116.714844 184.785156 116.714844 184.785156 116.710938 C 184.785156 116.710938 184.785156 116.710938 184.785156 116.707031 C 184.785156 116.707031 184.785156 116.703125 184.785156 116.703125 C 184.785156 116.703125 184.785156 116.703125 184.785156 116.699219 C 184.785156 116.699219 184.785156 116.695312 184.785156 116.695312 C 184.785156 116.695312 184.785156 116.691406 184.785156 116.691406 C 184.785156 116.6875 184.785156 116.6875 184.785156 116.683594 C 184.785156 116.683594 184.785156 116.683594 184.785156 116.679688 C 184.785156 116.679688 184.785156 116.675781 184.785156 116.675781 C 184.785156 116.671875 184.785156 116.671875 184.785156 116.671875 C 184.785156 116.667969 184.785156 116.667969 184.785156 116.664062 C 184.785156 116.664062 184.785156 116.660156 184.785156 116.660156 C 184.785156 116.65625 184.785156 116.65625 184.785156 116.652344 C 184.785156 116.652344 184.785156 116.652344 184.785156 116.648438 C 184.785156 116.644531 184.785156 116.644531 184.785156 116.644531 C 184.785156 116.640625 184.785156 116.636719 184.785156 116.632812 C 184.785156 116.628906 184.785156 116.621094 184.785156 116.617188 C 184.785156 116.464844 184.800781 116.3125 184.824219 116.167969 L 187.144531 113.847656 C 187.289062 113.824219 187.441406 113.808594 187.59375 113.808594 C 187.601562 113.808594 187.605469 113.808594 187.609375 113.808594 C 187.613281 113.808594 187.617188 113.808594 187.617188 113.808594 C 187.617188 113.808594 187.621094 113.808594 187.621094 113.808594 C 187.621094 113.808594 187.625 113.808594 187.628906 113.808594 C 187.628906 113.808594 187.628906 113.808594 187.632812 113.808594 C 187.632812 113.808594 187.636719 113.808594 187.636719 113.808594 C 187.636719 113.808594 187.640625 113.808594 187.640625 113.808594 C 187.644531 113.808594 187.644531 113.808594 187.648438 113.808594 C 187.648438 113.808594 187.648438 113.808594 187.652344 113.808594 C 187.652344 113.808594 187.65625 113.808594 187.660156 113.808594 C 187.660156 113.808594 187.660156 113.808594 187.664062 113.808594 C 187.664062 113.808594 187.667969 113.808594 187.667969 113.808594 C 187.667969 113.808594 187.671875 113.808594 187.671875 113.808594 C 187.671875 113.808594 187.671875 113.808594 187.675781 113.808594 C 187.675781 113.808594 187.675781 113.808594 187.679688 113.808594 C 187.679688 113.808594 187.683594 113.808594 187.6875 113.808594 C 187.691406 113.808594 187.695312 113.808594 187.695312 113.808594 C 187.699219 113.808594 187.699219 113.808594 187.699219 113.808594 C 188.507812 113.835938 189.230469 114.199219 189.730469 114.769531 L 185.746094 118.753906 M 185.777344 116.46875 C 185.675781 116.558594 185.613281 116.691406 185.613281 116.839844 C 185.613281 117.113281 185.832031 117.332031 186.105469 117.332031 C 186.351562 117.332031 186.558594 117.148438 186.589844 116.910156 C 187.054688 116.882812 187.421875 116.5 187.421875 116.03125 C 187.421875 115.945312 187.410156 115.863281 187.390625 115.789062 C 187.503906 115.714844 187.582031 115.585938 187.582031 115.4375 C 187.582031 115.210938 187.394531 115.027344 187.171875 115.027344 C 187.03125 115.027344 186.90625 115.09375 186.832031 115.195312 C 186.738281 115.167969 186.644531 115.148438 186.542969 115.148438 C 186.058594 115.148438 185.664062 115.542969 185.664062 116.03125 C 185.664062 116.191406 185.707031 116.339844 185.777344 116.46875 " fill-opacity="1" fill-rule="nonzero"/><path fill="#7c7c7c" d="M 186.589844 116.910156 C 186.59375 116.882812 186.59375 116.867188 186.59375 116.839844 C 186.59375 116.570312 186.375 116.351562 186.105469 116.351562 C 185.980469 116.351562 185.867188 116.394531 185.777344 116.46875 C 185.707031 116.339844 185.664062 116.191406 185.664062 116.03125 C 185.664062 115.542969 186.058594 115.148438 186.542969 115.148438 C 186.644531 115.148438 186.738281 115.167969 186.832031 115.195312 C 186.78125 115.265625 186.753906 115.351562 186.753906 115.4375 C 186.753906 115.667969 186.941406 115.855469 187.171875 115.855469 C 187.25 115.855469 187.328125 115.828125 187.390625 115.789062 C 187.410156 115.863281 187.421875 115.945312 187.421875 116.03125 C 187.421875 116.5 187.054688 116.882812 186.589844 116.910156 " fill-opacity="1" fill-rule="nonzero"/><path fill="#a9a9a9" d="M 187.390625 115.789062 C 187.3125 115.515625 187.101562 115.292969 186.832031 115.195312 C 186.90625 115.09375 187.03125 115.027344 187.171875 115.027344 C 187.394531 115.027344 187.582031 115.210938 187.582031 115.4375 C 187.582031 115.585938 187.503906 115.714844 187.390625 115.789062 " fill-opacity="1" fill-rule="nonzero"/><path fill="#b7b7b7" d="M 187.171875 115.855469 C 186.941406 115.855469 186.753906 115.667969 186.753906 115.4375 C 186.753906 115.351562 186.78125 115.265625 186.832031 115.195312 C 187.101562 115.292969 187.3125 115.515625 187.390625 115.789062 C 187.328125 115.828125 187.25 115.855469 187.171875 115.855469 " fill-opacity="1" fill-rule="nonzero"/><path fill="#a9a9a9" d="M 186.105469 117.332031 C 185.832031 117.332031 185.613281 117.113281 185.613281 116.839844 C 185.613281 116.691406 185.675781 116.558594 185.777344 116.46875 C 185.933594 116.730469 186.21875 116.910156 186.542969 116.910156 C 186.558594 116.910156 186.574219 116.910156 186.589844 116.910156 C 186.558594 117.148438 186.351562 117.332031 186.105469 117.332031 " fill-opacity="1" fill-rule="nonzero"/><path fill="#b7b7b7" d="M 186.542969 116.910156 C 186.21875 116.910156 185.933594 116.730469 185.777344 116.46875 C 185.867188 116.394531 185.980469 116.351562 186.105469 116.351562 C 186.375 116.351562 186.59375 116.570312 186.59375 116.839844 C 186.59375 116.867188 186.59375 116.882812 186.589844 116.910156 C 186.574219 116.910156 186.558594 116.910156 186.542969 116.910156 " fill-opacity="1" fill-rule="nonzero"/><path fill="#dfdfdf" d="M 190.398438 116.203125 C 190.378906 116.0625 190.34375 115.925781 190.304688 115.792969 C 190.347656 115.925781 190.378906 116.0625 190.398438 116.199219 L 190.398438 116.203125 " fill-opacity="1" fill-rule="nonzero"/><path fill="#595959" d="M 187.175781 119.425781 C 186.835938 119.371094 186.511719 119.257812 186.222656 119.09375 L 190.066406 115.246094 C 190.167969 115.417969 190.246094 115.597656 190.304688 115.792969 C 190.34375 115.925781 190.378906 116.0625 190.398438 116.203125 L 187.175781 119.425781 " fill-opacity="1" fill-rule="nonzero"/><path fill="#e5e5e5" d="M 203.050781 133.710938 C 203.050781 134.0625 202.746094 134.351562 202.363281 134.351562 L 172.851562 134.351562 C 172.476562 134.351562 172.167969 134.0625 172.167969 133.710938 L 172.167969 129.554688 C 172.167969 129.199219 172.476562 128.914062 172.851562 128.914062 L 202.363281 128.914062 C 202.746094 128.914062 203.050781 129.199219 203.050781 129.554688 L 203.050781 133.710938 " fill-opacity="1" fill-rule="nonzero"/><path fill="#c8c8c8" d="M 203.894531 128.914062 L 171.324219 128.914062 C 171.21875 128.515625 171.152344 128.097656 171.148438 127.664062 L 204.070312 127.664062 C 204.0625 128.097656 204 128.515625 203.894531 128.914062 " fill-opacity="1" fill-rule="nonzero"/><path fill="#373737" d="M 178.554688 128.914062 L 175.53125 128.914062 L 175.53125 100.007812 L 178.554688 100.007812 L 178.554688 128.914062 " fill-opacity="1" fill-rule="nonzero"/><path fill="#505050" d="M 177.945312 128.851562 L 177.136719 128.851562 L 177.136719 99.941406 L 177.945312 99.941406 L 177.945312 128.851562 " fill-opacity="1" fill-rule="nonzero"/><path fill="#373737" d="M 199.6875 128.914062 L 196.660156 128.914062 L 196.660156 100.007812 L 199.6875 100.007812 L 199.6875 128.914062 " fill-opacity="1" fill-rule="nonzero"/><path fill="#505050" d="M 199.078125 128.851562 L 198.265625 128.851562 L 198.265625 99.941406 L 199.078125 99.941406 L 199.078125 128.851562 " fill-opacity="1" fill-rule="nonzero"/><path fill="#dddddd" d="M 187.609375 94.589844 L 170.765625 94.589844 C 170.765625 103.179688 176.214844 105.316406 178.917969 106.578125 C 181.613281 107.839844 187.160156 108.070312 187.160156 108.070312 L 188.0625 108.070312 C 188.0625 108.070312 193.601562 107.839844 196.300781 106.578125 C 199.003906 105.316406 204.449219 103.179688 204.449219 94.589844 L 187.609375 94.589844 " fill-opacity="1" fill-rule="nonzero"/><path fill="#ffffff" d="M 204.34375 94.589844 C 203.570312 100.511719 198.78125 102.128906 196.300781 103.121094 C 193.601562 104.195312 188.0625 104.390625 188.0625 104.390625 L 187.160156 104.390625 C 187.160156 104.390625 181.613281 104.195312 178.917969 103.121094 C 176.4375 102.128906 171.644531 100.511719 170.875 94.589844 L 170.765625 94.589844 C 170.765625 103.179688 176.214844 105.316406 178.917969 106.578125 C 181.613281 107.839844 187.160156 108.070312 187.160156 108.070312 L 188.0625 108.070312 C 188.0625 108.070312 193.601562 107.839844 196.300781 106.578125 C 199.003906 105.316406 204.449219 103.179688 204.449219 94.589844 L 204.34375 94.589844 " fill-opacity="1" fill-rule="nonzero"/><path fill="#ffffff" d="M 207.648438 78.644531 L 206.765625 78.03125 C 206.765625 78.03125 206.347656 76.839844 205.550781 76.652344 C 205.550781 76.652344 204.332031 72.269531 202.554688 70.050781 C 200.777344 67.835938 197.644531 65.34375 194.367188 64.464844 C 191.09375 63.585938 188.148438 63.460938 188.148438 63.460938 L 187.070312 63.460938 C 187.070312 63.460938 184.121094 63.585938 180.847656 64.464844 C 177.574219 65.34375 174.4375 67.835938 172.660156 70.050781 C 170.882812 72.269531 169.667969 76.652344 169.667969 76.652344 C 168.871094 76.839844 168.453125 78.03125 168.453125 78.03125 L 167.570312 78.644531 C 167.152344 78.925781 166.910156 79.402344 166.910156 79.902344 L 166.910156 84.714844 C 166.910156 85.164062 167.105469 85.59375 167.453125 85.886719 L 168.21875 86.53125 C 168.21875 92.257812 169.667969 94.382812 171.632812 96.507812 C 173.597656 98.628906 177.855469 100.664062 180.382812 101.492188 C 182.90625 102.324219 187.210938 102.601562 187.210938 102.601562 L 188.003906 102.601562 C 188.003906 102.601562 192.308594 102.324219 194.839844 101.492188 C 197.363281 100.664062 201.621094 98.628906 203.585938 96.507812 C 205.550781 94.382812 207 92.257812 207 86.53125 L 207.765625 85.886719 C 208.109375 85.59375 208.3125 85.164062 208.3125 84.714844 L 208.3125 79.902344 C 208.3125 79.402344 208.0625 78.925781 207.648438 78.644531 " fill-opacity="1" fill-rule="nonzero"/><path fill="#373737" d="M 206.039062 81.273438 C 205.886719 77.976562 206.355469 78.160156 203.363281 77.125 C 200.375 76.085938 195.585938 75.234375 192.199219 74.925781 C 188.816406 74.625 187.871094 74.652344 187.871094 74.652344 L 187.347656 74.652344 C 187.347656 74.652344 186.398438 74.625 183.015625 74.925781 C 179.632812 75.234375 174.84375 76.085938 171.855469 77.125 C 168.863281 78.160156 169.332031 77.976562 169.179688 81.273438 C 169.027344 84.570312 169.726562 89.390625 170.265625 91.828125 C 170.796875 94.207031 173.902344 96.449219 178.105469 98.722656 C 182.222656 100.949219 187.035156 101.117188 187.035156 101.117188 L 188.183594 101.117188 C 188.183594 101.117188 192.996094 100.949219 197.113281 98.722656 C 201.316406 96.449219 204.421875 94.207031 204.949219 91.828125 C 205.492188 89.390625 206.195312 84.570312 206.039062 81.273438 " fill-opacity="1" fill-rule="nonzero"/><path fill="#2c2c2c" d="M 206.039062 81.273438 C 205.890625 78.078125 206.324219 78.152344 203.625 77.214844 C 203.652344 80.9375 202.921875 85.859375 202.351562 88.445312 C 201.742188 91.179688 198.175781 93.757812 193.339844 96.371094 C 188.609375 98.933594 183.074219 99.125 183.074219 99.125 L 181.757812 99.125 C 181.757812 99.125 180.136719 99.066406 177.902344 98.609375 L 178.105469 98.722656 C 182.222656 100.949219 187.035156 101.117188 187.035156 101.117188 L 188.183594 101.117188 C 188.183594 101.117188 192.996094 100.949219 197.113281 98.722656 C 201.316406 96.449219 204.421875 94.207031 204.949219 91.828125 C 205.492188 89.390625 206.195312 84.570312 206.039062 81.273438 " fill-opacity="1" fill-rule="nonzero"/><path fill="#dddddd" d="M 176.113281 72.5625 C 176.113281 73.300781 175.515625 73.898438 174.777344 73.898438 C 174.039062 73.898438 173.4375 73.300781 173.4375 72.5625 C 173.4375 71.828125 174.039062 71.226562 174.777344 71.226562 C 175.515625 71.226562 176.113281 71.828125 176.113281 72.5625 " fill-opacity="1" fill-rule="nonzero"/><path fill="#dddddd" d="M 180.808594 69.523438 C 180.808594 70.464844 180.046875 71.226562 179.101562 71.226562 C 178.160156 71.226562 177.398438 70.464844 177.398438 69.523438 C 177.398438 68.582031 178.160156 67.816406 179.101562 67.816406 C 180.046875 67.816406 180.808594 68.582031 180.808594 69.523438 " fill-opacity="1" fill-rule="nonzero"/><path fill="#dddddd" d="M 194.714844 105.492188 C 194.714844 105.910156 194.378906 106.25 193.957031 106.25 C 193.542969 106.25 193.207031 105.910156 193.207031 105.492188 C 193.207031 105.078125 193.542969 104.738281 193.957031 104.738281 C 194.378906 104.738281 194.714844 105.078125 194.714844 105.492188 " fill-opacity="1" fill-rule="nonzero"/><path fill="#dddddd" d="M 196.53125 104.855469 C 196.53125 105.121094 196.3125 105.339844 196.046875 105.339844 C 195.777344 105.339844 195.558594 105.121094 195.558594 104.855469 C 195.558594 104.582031 195.777344 104.363281 196.046875 104.363281 C 196.3125 104.363281 196.53125 104.582031 196.53125 104.855469 " fill-opacity="1" fill-rule="nonzero"/><path fill="#c0c0c0" d="M 170.308594 91.988281 C 170.308594 91.988281 170.308594 91.988281 170.308594 91.984375 C 170.308594 91.988281 170.308594 91.988281 170.308594 91.988281 M 170.304688 91.972656 C 170.304688 91.96875 170.304688 91.96875 170.304688 91.96875 C 170.304688 91.96875 170.304688 91.96875 170.304688 91.972656 M 170.296875 91.941406 C 170.296875 91.941406 170.296875 91.9375 170.296875 91.9375 C 170.296875 91.9375 170.296875 91.941406 170.296875 91.941406 M 170.292969 91.925781 C 170.292969 91.921875 170.292969 91.921875 170.289062 91.917969 C 170.292969 91.921875 170.292969 91.921875 170.292969 91.925781 M 170.289062 91.910156 C 170.285156 91.90625 170.285156 91.90625 170.285156 91.902344 C 170.285156 91.90625 170.285156 91.90625 170.289062 91.910156 M 170.285156 91.890625 C 170.28125 91.890625 170.28125 91.890625 170.28125 91.890625 C 170.28125 91.890625 170.28125 91.890625 170.285156 91.890625 M 170.28125 91.878906 C 170.277344 91.878906 170.277344 91.875 170.277344 91.875 C 170.277344 91.875 170.277344 91.878906 170.28125 91.878906 M 170.277344 91.863281 C 170.277344 91.863281 170.273438 91.859375 170.273438 91.859375 C 170.273438 91.859375 170.277344 91.863281 170.277344 91.863281 M 170.273438 91.847656 C 170.273438 91.84375 170.269531 91.84375 170.269531 91.839844 C 170.269531 91.84375 170.273438 91.84375 170.273438 91.847656 M 170.265625 91.828125 C 170.25 91.730469 170.226562 91.632812 170.203125 91.53125 C 170.226562 91.632812 170.25 91.730469 170.265625 91.828125 M 170.203125 91.53125 C 170.203125 91.53125 170.203125 91.527344 170.199219 91.523438 C 170.203125 91.527344 170.203125 91.53125 170.203125 91.53125 M 182.585938 74.96875 C 182.730469 74.953125 182.875 74.941406 183.015625 74.925781 C 182.875 74.941406 182.730469 74.953125 182.585938 74.96875 " fill-opacity="1" fill-rule="nonzero"/><path fill="#5d5d5d" d="M 173.382812 95.773438 C 171.777344 94.542969 170.675781 93.296875 170.3125 92.015625 C 170.3125 92.011719 170.3125 92.003906 170.308594 92.003906 C 170.308594 91.996094 170.308594 91.992188 170.308594 91.988281 C 170.308594 91.988281 170.308594 91.988281 170.308594 91.984375 C 170.308594 91.980469 170.304688 91.976562 170.304688 91.972656 C 170.304688 91.96875 170.304688 91.96875 170.304688 91.96875 C 170.304688 91.964844 170.300781 91.957031 170.300781 91.953125 C 170.300781 91.949219 170.296875 91.945312 170.296875 91.941406 C 170.296875 91.941406 170.296875 91.9375 170.296875 91.9375 C 170.292969 91.933594 170.292969 91.929688 170.292969 91.925781 C 170.292969 91.921875 170.292969 91.921875 170.289062 91.917969 C 170.289062 91.914062 170.289062 91.910156 170.289062 91.910156 C 170.285156 91.90625 170.285156 91.90625 170.285156 91.902344 C 170.285156 91.898438 170.285156 91.894531 170.285156 91.890625 C 170.28125 91.890625 170.28125 91.890625 170.28125 91.890625 C 170.28125 91.886719 170.28125 91.882812 170.28125 91.878906 C 170.277344 91.878906 170.277344 91.875 170.277344 91.875 C 170.277344 91.871094 170.277344 91.867188 170.277344 91.863281 C 170.277344 91.863281 170.273438 91.859375 170.273438 91.859375 C 170.273438 91.855469 170.273438 91.851562 170.273438 91.847656 C 170.273438 91.84375 170.269531 91.84375 170.269531 91.839844 C 170.269531 91.835938 170.269531 91.835938 170.265625 91.828125 C 170.25 91.730469 170.226562 91.632812 170.203125 91.53125 C 170.203125 91.53125 170.203125 91.527344 170.199219 91.523438 C 169.992188 90.527344 169.765625 89.207031 169.578125 87.777344 L 171.777344 85.578125 C 172.292969 86.628906 173.1875 87.457031 174.285156 87.882812 C 174.121094 88.148438 174.027344 88.460938 174.027344 88.796875 C 174.027344 89.757812 174.804688 90.535156 175.761719 90.535156 C 176.722656 90.535156 177.5 89.757812 177.5 88.796875 C 177.5 88.515625 177.433594 88.246094 177.3125 88.007812 C 179.25 87.433594 180.664062 85.640625 180.664062 83.511719 C 180.664062 82.925781 180.554688 82.363281 180.359375 81.839844 C 181.402344 81.609375 182.183594 80.671875 182.183594 79.554688 C 182.183594 78.359375 181.28125 77.367188 180.121094 77.230469 L 182.359375 74.992188 C 182.4375 74.984375 182.507812 74.976562 182.585938 74.96875 C 182.730469 74.953125 182.875 74.941406 183.015625 74.925781 C 185.835938 74.675781 186.960938 74.652344 187.261719 74.652344 C 187.320312 74.652344 187.347656 74.652344 187.347656 74.652344 L 187.871094 74.652344 C 187.871094 74.652344 187.894531 74.652344 187.957031 74.652344 C 188.253906 74.652344 189.382812 74.675781 192.199219 74.925781 C 192.773438 74.976562 193.386719 75.046875 194.023438 75.125 L 173.382812 95.773438 " fill-opacity="1" fill-rule="nonzero"/><path fill="#c0c0c0" d="M 178.105469 98.722656 C 177.953125 98.640625 177.800781 98.554688 177.652344 98.472656 C 177.800781 98.554688 177.953125 98.640625 178.105469 98.722656 " fill-opacity="1" fill-rule="nonzero"/><path fill="#5d5d5d" d="M 179.59375 98.90625 C 179.089844 98.832031 178.519531 98.738281 177.902344 98.609375 L 178.105469 98.722656 C 177.953125 98.640625 177.800781 98.554688 177.652344 98.472656 C 177.011719 98.121094 176.40625 97.769531 175.828125 97.421875 L 197.566406 75.683594 C 199.0625 75.960938 200.535156 76.289062 201.839844 76.652344 L 179.59375 98.90625 " fill-opacity="1" fill-rule="nonzero"/><path fill="#575757" d="M 179.226562 99.269531 C 178.847656 99.101562 178.476562 98.921875 178.105469 98.722656 L 177.902344 98.609375 C 178.519531 98.738281 179.089844 98.832031 179.59375 98.90625 L 179.226562 99.269531 " fill-opacity="1" fill-rule="nonzero"/><path fill="#5f5f5f" d="M 171.777344 85.578125 C 171.472656 84.957031 171.300781 84.253906 171.300781 83.511719 C 171.300781 80.929688 173.394531 78.828125 175.984375 78.828125 C 176.53125 78.828125 177.054688 78.925781 177.542969 79.09375 C 177.515625 79.246094 177.5 79.398438 177.5 79.554688 C 177.5 79.652344 177.503906 79.746094 177.515625 79.835938 L 171.777344 85.578125 " fill-opacity="1" fill-rule="nonzero"/><path fill="#7d7d7d" d="M 177.3125 88.007812 C 177.023438 87.445312 176.4375 87.058594 175.761719 87.058594 C 175.140625 87.058594 174.59375 87.390625 174.285156 87.882812 C 173.1875 87.457031 172.292969 86.628906 171.777344 85.578125 L 177.515625 79.835938 C 177.65625 80.996094 178.644531 81.898438 179.839844 81.898438 C 180.019531 81.898438 180.191406 81.878906 180.359375 81.839844 C 180.554688 82.363281 180.664062 82.925781 180.664062 83.511719 C 180.664062 85.640625 179.25 87.433594 177.3125 88.007812 " fill-opacity="1" fill-rule="nonzero"/><path fill="#5f5f5f" d="M 178.042969 79.308594 C 177.882812 79.226562 177.714844 79.15625 177.542969 79.09375 C 177.757812 78.023438 178.707031 77.214844 179.839844 77.214844 C 179.9375 77.214844 180.03125 77.21875 180.121094 77.230469 L 178.042969 79.308594 " fill-opacity="1" fill-rule="nonzero"/><path fill="#7d7d7d" d="M 180.359375 81.839844 C 179.9375 80.734375 179.101562 79.824219 178.042969 79.308594 L 180.121094 77.230469 C 181.28125 77.367188 182.183594 78.359375 182.183594 79.554688 C 182.183594 80.671875 181.402344 81.609375 180.359375 81.839844 " fill-opacity="1" fill-rule="nonzero"/><path fill="#7f7f7f" d="M 177.515625 79.835938 C 177.503906 79.746094 177.5 79.652344 177.5 79.554688 C 177.5 79.398438 177.515625 79.246094 177.542969 79.09375 C 177.714844 79.15625 177.882812 79.226562 178.042969 79.308594 L 177.515625 79.835938 " fill-opacity="1" fill-rule="nonzero"/><path fill="#979797" d="M 179.839844 81.898438 C 178.644531 81.898438 177.65625 80.996094 177.515625 79.835938 L 178.042969 79.308594 C 179.101562 79.824219 179.9375 80.734375 180.359375 81.839844 C 180.191406 81.878906 180.019531 81.898438 179.839844 81.898438 " fill-opacity="1" fill-rule="nonzero"/><path fill="#7d7d7d" d="M 175.761719 90.535156 C 174.804688 90.535156 174.027344 89.757812 174.027344 88.796875 C 174.027344 88.460938 174.121094 88.148438 174.285156 87.882812 C 174.8125 88.089844 175.382812 88.203125 175.984375 88.203125 C 176.441406 88.203125 176.886719 88.132812 177.3125 88.007812 C 177.433594 88.246094 177.5 88.515625 177.5 88.796875 C 177.5 89.757812 176.722656 90.535156 175.761719 90.535156 " fill-opacity="1" fill-rule="nonzero"/><path fill="#979797" d="M 175.984375 88.203125 C 175.382812 88.203125 174.8125 88.089844 174.285156 87.882812 C 174.59375 87.390625 175.140625 87.058594 175.761719 87.058594 C 176.4375 87.058594 177.023438 87.445312 177.3125 88.007812 C 176.886719 88.132812 176.441406 88.203125 175.984375 88.203125 " fill-opacity="1" fill-rule="nonzero"/><path fill="#ffffff" d="M 171.136719 102.285156 C 171.003906 102.277344 170.871094 102.265625 170.738281 102.265625 C 167.113281 102.265625 164.175781 105.203125 164.175781 108.832031 L 164.175781 127.980469 L 171.136719 127.980469 L 171.136719 102.285156 " fill-opacity="1" fill-rule="nonzero"/><path fill="#e5e5e5" d="M 170.738281 102.265625 C 170.871094 102.265625 171.003906 102.277344 171.136719 102.285156 L 171.136719 102.351562 C 168.011719 102.855469 165.628906 105.566406 165.628906 108.832031 L 165.628906 127.980469 L 164.175781 127.980469 L 164.175781 108.832031 C 164.175781 105.203125 167.113281 102.265625 170.738281 102.265625 " fill-opacity="1" fill-rule="nonzero"/><path fill="#d1d3d4" d="M 172.589844 128.980469 C 172.589844 131.703125 170.378906 133.914062 167.65625 133.914062 C 164.929688 133.914062 162.722656 131.703125 162.722656 128.980469 C 162.722656 126.253906 164.929688 124.042969 167.65625 124.042969 C 170.378906 124.042969 172.589844 126.253906 172.589844 128.980469 " fill-opacity="1" fill-rule="nonzero"/><path fill="#ffffff" d="M 166.445312 127.488281 C 166.445312 128.050781 165.984375 128.511719 165.417969 128.511719 C 164.855469 128.511719 164.394531 128.050781 164.394531 127.488281 C 164.394531 126.921875 164.855469 126.460938 165.417969 126.460938 C 165.984375 126.460938 166.445312 126.921875 166.445312 127.488281 " fill-opacity="1" fill-rule="nonzero"/><path fill="#d5e2dd" d="M 217.417969 158.414062 C 216.542969 158.28125 215.9375 157.464844 216.066406 156.585938 L 230.578125 59.820312 C 230.710938 58.941406 231.527344 58.339844 232.410156 58.472656 C 233.285156 58.601562 233.886719 59.421875 233.753906 60.296875 L 219.242188 157.0625 C 219.109375 157.941406 218.292969 158.546875 217.417969 158.414062 " fill-opacity="1" fill-rule="nonzero"/><path fill="#662d91" d="M 271.800781 96.753906 C 254.945312 101.578125 242.917969 85.066406 226.070312 89.890625 C 227.65625 79.316406 229.242188 68.738281 230.828125 58.164062 C 247.675781 53.335938 259.707031 69.851562 276.558594 65.023438 C 274.972656 75.601562 273.386719 86.179688 271.800781 96.753906 " fill-opacity="1" fill-rule="nonzero"/><path fill="#8354a6" d="M 235.957031 61.617188 C 235.957031 62.417969 235.308594 63.0625 234.511719 63.0625 C 233.710938 63.0625 233.066406 62.417969 233.066406 61.617188 C 233.066406 60.820312 233.710938 60.171875 234.511719 60.171875 C 235.308594 60.171875 235.957031 60.820312 235.957031 61.617188 " fill-opacity="1" fill-rule="nonzero"/><path fill="#8354a6" d="M 239.621094 61.625 C 239.621094 62.132812 239.207031 62.542969 238.699219 62.542969 C 238.195312 62.542969 237.785156 62.132812 237.785156 61.625 C 237.785156 61.117188 238.195312 60.707031 238.699219 60.707031 C 239.207031 60.707031 239.621094 61.117188 239.621094 61.625 " fill-opacity="1" fill-rule="nonzero"/><path fill="#d1d3d4" d="M 217.992188 106.234375 C 217.992188 109.714844 220.8125 112.539062 224.292969 112.539062 C 227.777344 112.539062 230.597656 109.714844 230.597656 106.234375 C 230.597656 102.75 227.777344 99.929688 224.292969 99.929688 C 220.8125 99.929688 217.992188 102.75 217.992188 106.234375 " fill-opacity="1" fill-rule="nonzero"/><path fill="#ffffff" d="M 228.316406 103.242188 C 228.316406 103.863281 227.816406 104.367188 227.195312 104.367188 C 226.570312 104.367188 226.070312 103.863281 226.070312 103.242188 C 226.070312 102.621094 226.570312 102.117188 227.195312 102.117188 C 227.816406 102.117188 228.316406 102.621094 228.316406 103.242188 " fill-opacity="1" fill-rule="nonzero"/></svg>