<svg xmlns="http://www.w3.org/2000/svg" xmlns:xlink="http://www.w3.org/1999/xlink" width="1024" zoomAndPan="magnify" viewBox="0 0 768 767.999994" height="1024" preserveAspectRatio="xMidYMid meet" version="1.0"><defs><clipPath id="id1"><path d="M 76.800781 353 L 691.050781 353 L 691.050781 415 L 76.800781 415 Z M 76.800781 353 " clip-rule="nonzero"/></clipPath><clipPath id="id2"><path d="M 76.800781 537 L 691.050781 537 L 691.050781 598.710938 L 76.800781 598.710938 Z M 76.800781 537 " clip-rule="nonzero"/></clipPath><clipPath id="id3"><path d="M 76.800781 168.960938 L 691.050781 168.960938 L 691.050781 231 L 76.800781 231 Z M 76.800781 168.960938 " clip-rule="nonzero"/></clipPath></defs><g clip-path="url(#id1)"><path fill="#ffffff" d="M 660.335938 353.140625 L 107.511719 353.140625 C 106.507812 353.140625 105.503906 353.1875 104.503906 353.285156 C 103.5 353.386719 102.507812 353.53125 101.519531 353.730469 C 100.535156 353.925781 99.558594 354.167969 98.597656 354.460938 C 97.632812 354.753906 96.6875 355.089844 95.757812 355.476562 C 94.828125 355.859375 93.921875 356.289062 93.035156 356.761719 C 92.148438 357.238281 91.285156 357.753906 90.449219 358.3125 C 89.613281 358.871094 88.804688 359.46875 88.027344 360.105469 C 87.25 360.746094 86.507812 361.417969 85.796875 362.128906 C 85.085938 362.839844 84.410156 363.585938 83.769531 364.363281 C 83.132812 365.140625 82.535156 365.945312 81.976562 366.78125 C 81.417969 367.617188 80.902344 368.476562 80.425781 369.363281 C 79.953125 370.25 79.523438 371.160156 79.136719 372.089844 C 78.753906 373.015625 78.414062 373.960938 78.121094 374.925781 C 77.832031 375.886719 77.585938 376.859375 77.390625 377.847656 C 77.195312 378.832031 77.046875 379.824219 76.949219 380.828125 C 76.847656 381.828125 76.800781 382.828125 76.800781 383.835938 C 76.800781 384.839844 76.847656 385.84375 76.949219 386.84375 C 77.046875 387.84375 77.195312 388.835938 77.390625 389.824219 C 77.585938 390.808594 77.832031 391.785156 78.121094 392.746094 C 78.414062 393.707031 78.753906 394.652344 79.136719 395.582031 C 79.523438 396.511719 79.953125 397.417969 80.425781 398.304688 C 80.902344 399.191406 81.417969 400.054688 81.976562 400.890625 C 82.535156 401.726562 83.132812 402.53125 83.769531 403.308594 C 84.410156 404.085938 85.085938 404.828125 85.796875 405.539062 C 86.507812 406.25 87.25 406.925781 88.027344 407.5625 C 88.804688 408.199219 89.613281 408.800781 90.449219 409.359375 C 91.285156 409.917969 92.148438 410.433594 93.035156 410.90625 C 93.921875 411.378906 94.828125 411.808594 95.757812 412.195312 C 96.6875 412.578125 97.632812 412.917969 98.597656 413.210938 C 99.558594 413.5 100.535156 413.746094 101.519531 413.941406 C 102.507812 414.136719 103.5 414.285156 104.503906 414.382812 C 105.503906 414.480469 106.507812 414.53125 107.511719 414.53125 L 660.335938 414.53125 C 661.34375 414.53125 662.347656 414.480469 663.347656 414.382812 C 664.347656 414.285156 665.34375 414.136719 666.328125 413.941406 C 667.316406 413.746094 668.289062 413.5 669.253906 413.210938 C 670.214844 412.917969 671.160156 412.578125 672.089844 412.195312 C 673.019531 411.808594 673.929688 411.378906 674.816406 410.90625 C 675.703125 410.433594 676.5625 409.917969 677.398438 409.359375 C 678.238281 408.800781 679.042969 408.203125 679.820312 407.5625 C 680.597656 406.925781 681.34375 406.25 682.054688 405.539062 C 682.765625 404.828125 683.441406 404.085938 684.078125 403.308594 C 684.714844 402.53125 685.316406 401.726562 685.875 400.890625 C 686.433594 400.054688 686.949219 399.191406 687.421875 398.304688 C 687.898438 397.417969 688.328125 396.511719 688.710938 395.582031 C 689.097656 394.652344 689.433594 393.707031 689.726562 392.746094 C 690.019531 391.785156 690.261719 390.808594 690.460938 389.824219 C 690.65625 388.835938 690.804688 387.84375 690.902344 386.84375 C 691 385.84375 691.050781 384.839844 691.050781 383.835938 C 691.050781 382.828125 691 381.828125 690.902344 380.828125 C 690.804688 379.824219 690.65625 378.832031 690.460938 377.847656 C 690.261719 376.859375 690.019531 375.886719 689.726562 374.925781 C 689.433594 373.960938 689.097656 373.015625 688.710938 372.089844 C 688.328125 371.160156 687.898438 370.25 687.421875 369.363281 C 686.949219 368.476562 686.433594 367.617188 685.875 366.78125 C 685.316406 365.945312 684.714844 365.140625 684.078125 364.363281 C 683.441406 363.585938 682.765625 362.839844 682.054688 362.128906 C 681.34375 361.417969 680.597656 360.746094 679.820312 360.105469 C 679.042969 359.46875 678.238281 358.871094 677.398438 358.3125 C 676.5625 357.753906 675.703125 357.238281 674.816406 356.761719 C 673.929688 356.289062 673.019531 355.859375 672.089844 355.476562 C 671.160156 355.089844 670.214844 354.753906 669.253906 354.460938 C 668.289062 354.167969 667.316406 353.925781 666.328125 353.730469 C 665.34375 353.53125 664.347656 353.386719 663.347656 353.285156 C 662.347656 353.1875 661.34375 353.140625 660.335938 353.140625 Z M 660.335938 353.140625 " fill-opacity="1" fill-rule="nonzero"/></g><g clip-path="url(#id2)"><path fill="#ffffff" d="M 660.335938 537.316406 L 107.511719 537.316406 C 106.507812 537.316406 105.503906 537.363281 104.503906 537.464844 C 103.5 537.5625 102.507812 537.710938 101.519531 537.90625 C 100.535156 538.101562 99.558594 538.34375 98.597656 538.636719 C 97.632812 538.929688 96.6875 539.265625 95.757812 539.652344 C 94.828125 540.035156 93.921875 540.464844 93.035156 540.941406 C 92.148438 541.414062 91.285156 541.929688 90.449219 542.488281 C 89.613281 543.046875 88.804688 543.644531 88.027344 544.28125 C 87.25 544.921875 86.507812 545.59375 85.796875 546.304688 C 85.085938 547.015625 84.410156 547.761719 83.769531 548.539062 C 83.132812 549.316406 82.535156 550.121094 81.976562 550.957031 C 81.417969 551.792969 80.902344 552.65625 80.425781 553.542969 C 79.953125 554.429688 79.523438 555.335938 79.136719 556.265625 C 78.753906 557.195312 78.414062 558.140625 78.121094 559.101562 C 77.832031 560.0625 77.585938 561.035156 77.390625 562.023438 C 77.195312 563.007812 77.046875 564.003906 76.949219 565.003906 C 76.847656 566.003906 76.800781 567.007812 76.800781 568.011719 C 76.800781 569.015625 76.847656 570.019531 76.949219 571.019531 C 77.046875 572.019531 77.195312 573.015625 77.390625 574 C 77.585938 574.984375 77.832031 575.960938 78.121094 576.921875 C 78.414062 577.882812 78.753906 578.828125 79.136719 579.757812 C 79.523438 580.6875 79.953125 581.59375 80.425781 582.480469 C 80.902344 583.367188 81.417969 584.230469 81.976562 585.066406 C 82.535156 585.902344 83.132812 586.707031 83.769531 587.484375 C 84.410156 588.261719 85.085938 589.007812 85.796875 589.71875 C 86.507812 590.429688 87.25 591.101562 88.027344 591.738281 C 88.804688 592.378906 89.613281 592.976562 90.449219 593.535156 C 91.285156 594.09375 92.148438 594.609375 93.035156 595.082031 C 93.921875 595.558594 94.828125 595.984375 95.757812 596.371094 C 96.6875 596.753906 97.632812 597.09375 98.597656 597.386719 C 99.558594 597.679688 100.535156 597.921875 101.519531 598.117188 C 102.507812 598.3125 103.5 598.460938 104.503906 598.558594 C 105.503906 598.660156 106.507812 598.707031 107.511719 598.707031 L 660.335938 598.707031 C 661.34375 598.707031 662.347656 598.660156 663.347656 598.558594 C 664.347656 598.460938 665.34375 598.3125 666.328125 598.117188 C 667.316406 597.921875 668.289062 597.675781 669.253906 597.386719 C 670.214844 597.09375 671.160156 596.753906 672.089844 596.371094 C 673.019531 595.984375 673.929688 595.558594 674.816406 595.082031 C 675.703125 594.609375 676.5625 594.09375 677.398438 593.535156 C 678.238281 592.976562 679.042969 592.378906 679.820312 591.738281 C 680.597656 591.101562 681.34375 590.429688 682.054688 589.71875 C 682.765625 589.007812 683.441406 588.261719 684.078125 587.484375 C 684.714844 586.707031 685.316406 585.902344 685.875 585.066406 C 686.433594 584.230469 686.949219 583.367188 687.421875 582.480469 C 687.898438 581.59375 688.328125 580.6875 688.710938 579.757812 C 689.097656 578.828125 689.433594 577.882812 689.726562 576.921875 C 690.019531 575.960938 690.261719 574.984375 690.460938 574 C 690.65625 573.015625 690.804688 572.019531 690.902344 571.019531 C 691 570.019531 691.050781 569.015625 691.050781 568.011719 C 691.050781 567.007812 691 566.003906 690.902344 565.003906 C 690.804688 564.003906 690.65625 563.007812 690.460938 562.023438 C 690.261719 561.035156 690.019531 560.0625 689.726562 559.101562 C 689.433594 558.140625 689.097656 557.195312 688.710938 556.265625 C 688.328125 555.335938 687.898438 554.429688 687.421875 553.542969 C 686.949219 552.65625 686.433594 551.792969 685.875 550.957031 C 685.316406 550.121094 684.714844 549.316406 684.078125 548.539062 C 683.441406 547.761719 682.765625 547.015625 682.054688 546.304688 C 681.34375 545.59375 680.597656 544.921875 679.820312 544.28125 C 679.042969 543.644531 678.238281 543.046875 677.398438 542.488281 C 676.5625 541.929688 675.703125 541.414062 674.816406 540.941406 C 673.929688 540.464844 673.019531 540.035156 672.089844 539.652344 C 671.160156 539.265625 670.214844 538.929688 669.253906 538.636719 C 668.289062 538.34375 667.316406 538.101562 666.328125 537.90625 C 665.34375 537.710938 664.347656 537.5625 663.347656 537.464844 C 662.347656 537.363281 661.34375 537.316406 660.335938 537.316406 Z M 660.335938 537.316406 " fill-opacity="1" fill-rule="nonzero"/></g><g clip-path="url(#id3)"><path fill="#ffffff" d="M 107.511719 230.355469 L 660.335938 230.355469 C 661.34375 230.355469 662.347656 230.304688 663.347656 230.207031 C 664.347656 230.109375 665.34375 229.960938 666.328125 229.765625 C 667.316406 229.570312 668.289062 229.324219 669.253906 229.03125 C 670.214844 228.742188 671.160156 228.402344 672.089844 228.019531 C 673.019531 227.632812 673.929688 227.203125 674.816406 226.730469 C 675.703125 226.257812 676.5625 225.738281 677.398438 225.179688 C 678.238281 224.621094 679.042969 224.023438 679.820312 223.386719 C 680.597656 222.75 681.34375 222.074219 682.054688 221.363281 C 682.765625 220.652344 683.441406 219.910156 684.078125 219.132812 C 684.714844 218.355469 685.316406 217.546875 685.875 216.710938 C 686.433594 215.875 686.949219 215.015625 687.421875 214.128906 C 687.898438 213.242188 688.328125 212.335938 688.710938 211.40625 C 689.097656 210.476562 689.433594 209.53125 689.726562 208.570312 C 690.019531 207.605469 690.261719 206.632812 690.460938 205.648438 C 690.65625 204.660156 690.804688 203.667969 690.902344 202.667969 C 691 201.667969 691.050781 200.664062 691.050781 199.660156 C 691.050781 198.652344 691 197.648438 690.902344 196.648438 C 690.804688 195.648438 690.65625 194.65625 690.460938 193.671875 C 690.261719 192.683594 690.019531 191.710938 689.726562 190.746094 C 689.433594 189.785156 689.097656 188.839844 688.710938 187.910156 C 688.328125 186.984375 687.898438 186.074219 687.421875 185.1875 C 686.949219 184.300781 686.433594 183.441406 685.875 182.605469 C 685.316406 181.769531 684.714844 180.960938 684.078125 180.183594 C 683.441406 179.40625 682.765625 178.664062 682.054688 177.953125 C 681.34375 177.242188 680.597656 176.566406 679.820312 175.929688 C 679.042969 175.292969 678.238281 174.695312 677.398438 174.136719 C 676.5625 173.578125 675.703125 173.0625 674.816406 172.585938 C 673.929688 172.113281 673.019531 171.683594 672.089844 171.300781 C 671.160156 170.914062 670.214844 170.574219 669.253906 170.285156 C 668.289062 169.992188 667.316406 169.75 666.328125 169.550781 C 665.34375 169.355469 664.347656 169.207031 663.347656 169.109375 C 662.347656 169.011719 661.34375 168.960938 660.335938 168.960938 L 107.511719 168.960938 C 106.507812 168.960938 105.503906 169.011719 104.503906 169.109375 C 103.5 169.207031 102.507812 169.355469 101.519531 169.550781 C 100.535156 169.75 99.558594 169.992188 98.597656 170.285156 C 97.632812 170.574219 96.6875 170.914062 95.757812 171.300781 C 94.828125 171.683594 93.921875 172.113281 93.035156 172.585938 C 92.148438 173.0625 91.285156 173.578125 90.449219 174.136719 C 89.613281 174.695312 88.804688 175.292969 88.027344 175.929688 C 87.25 176.566406 86.507812 177.242188 85.796875 177.953125 C 85.085938 178.664062 84.410156 179.40625 83.769531 180.183594 C 83.132812 180.960938 82.535156 181.769531 81.976562 182.605469 C 81.417969 183.441406 80.902344 184.300781 80.425781 185.1875 C 79.953125 186.074219 79.523438 186.984375 79.136719 187.910156 C 78.753906 188.839844 78.414062 189.785156 78.121094 190.746094 C 77.832031 191.710938 77.585938 192.683594 77.390625 193.671875 C 77.195312 194.65625 77.046875 195.648438 76.949219 196.648438 C 76.847656 197.648438 76.800781 198.652344 76.800781 199.660156 C 76.800781 200.664062 76.847656 201.667969 76.949219 202.667969 C 77.046875 203.667969 77.195312 204.660156 77.390625 205.648438 C 77.585938 206.632812 77.832031 207.605469 78.121094 208.570312 C 78.414062 209.53125 78.753906 210.476562 79.136719 211.40625 C 79.523438 212.335938 79.953125 213.242188 80.425781 214.128906 C 80.902344 215.015625 81.417969 215.875 81.976562 216.710938 C 82.535156 217.546875 83.132812 218.355469 83.769531 219.132812 C 84.410156 219.910156 85.085938 220.652344 85.796875 221.363281 C 86.507812 222.074219 87.25 222.75 88.027344 223.386719 C 88.804688 224.023438 89.613281 224.621094 90.449219 225.179688 C 91.285156 225.738281 92.148438 226.257812 93.035156 226.730469 C 93.921875 227.203125 94.828125 227.632812 95.757812 228.019531 C 96.6875 228.402344 97.632812 228.742188 98.597656 229.03125 C 99.558594 229.324219 100.535156 229.570312 101.519531 229.765625 C 102.507812 229.960938 103.5 230.109375 104.503906 230.207031 C 105.503906 230.304688 106.507812 230.355469 107.511719 230.355469 Z M 107.511719 230.355469 " fill-opacity="1" fill-rule="nonzero"/></g></svg>