<svg xmlns="http://www.w3.org/2000/svg" xmlns:xlink="http://www.w3.org/1999/xlink" width="1024" zoomAndPan="magnify" viewBox="0 0 768 767.999994" height="1024" preserveAspectRatio="xMidYMid meet" version="1.0"><defs><clipPath id="id1"><path d="M 76.800781 78 L 398 78 L 398 690 L 76.800781 690 Z M 76.800781 78 " clip-rule="nonzero"/></clipPath></defs><path fill="#ffffff" d="M 670.5 689.441406 C 668.367188 689.445312 666.3125 689.039062 664.339844 688.226562 C 662.367188 687.414062 660.625 686.253906 659.117188 684.746094 L 370.289062 395.308594 C 369.914062 394.9375 369.5625 394.546875 369.226562 394.140625 C 368.890625 393.730469 368.578125 393.308594 368.285156 392.871094 C 367.988281 392.433594 367.71875 391.980469 367.46875 391.515625 C 367.222656 391.050781 366.996094 390.574219 366.792969 390.089844 C 366.589844 389.601562 366.414062 389.105469 366.261719 388.601562 C 366.105469 388.09375 365.976562 387.585938 365.875 387.066406 C 365.773438 386.550781 365.695312 386.027344 365.644531 385.503906 C 365.589844 384.980469 365.566406 384.453125 365.566406 383.925781 C 365.566406 383.398438 365.589844 382.871094 365.644531 382.347656 C 365.695312 381.820312 365.773438 381.300781 365.875 380.78125 C 365.976562 380.265625 366.105469 379.753906 366.261719 379.25 C 366.414062 378.746094 366.589844 378.25 366.792969 377.761719 C 366.996094 377.273438 367.222656 376.796875 367.46875 376.332031 C 367.71875 375.867188 367.988281 375.417969 368.285156 374.980469 C 368.578125 374.539062 368.890625 374.117188 369.226562 373.710938 C 369.5625 373.304688 369.914062 372.914062 370.289062 372.539062 L 659.117188 83.101562 C 659.488281 82.730469 659.878906 82.378906 660.285156 82.042969 C 660.695312 81.710938 661.117188 81.398438 661.554688 81.105469 C 661.992188 80.8125 662.445312 80.542969 662.910156 80.296875 C 663.375 80.046875 663.851562 79.824219 664.339844 79.621094 C 664.824219 79.421875 665.320312 79.242188 665.824219 79.089844 C 666.328125 78.9375 666.839844 78.8125 667.355469 78.710938 C 667.875 78.605469 668.394531 78.53125 668.917969 78.480469 C 669.441406 78.425781 669.96875 78.402344 670.496094 78.402344 C 671.023438 78.402344 671.546875 78.429688 672.074219 78.480469 C 672.597656 78.53125 673.117188 78.609375 673.632812 78.714844 C 674.152344 78.816406 674.660156 78.945312 675.164062 79.097656 C 675.667969 79.25 676.164062 79.429688 676.652344 79.628906 C 677.136719 79.832031 677.613281 80.058594 678.078125 80.304688 C 678.542969 80.554688 678.992188 80.824219 679.433594 81.117188 C 679.871094 81.410156 680.292969 81.722656 680.699219 82.058594 C 681.105469 82.390625 681.496094 82.746094 681.871094 83.117188 C 682.242188 83.492188 682.597656 83.878906 682.929688 84.289062 C 683.265625 84.695312 683.578125 85.117188 683.871094 85.554688 C 684.164062 85.992188 684.433594 86.445312 684.683594 86.910156 C 684.929688 87.375 685.15625 87.851562 685.359375 88.335938 C 685.558594 88.824219 685.738281 89.320312 685.890625 89.824219 C 686.042969 90.328125 686.171875 90.835938 686.273438 91.355469 C 686.378906 91.871094 686.453125 92.390625 686.507812 92.914062 C 686.558594 93.441406 686.585938 93.964844 686.585938 94.492188 C 686.585938 95.019531 686.558594 95.542969 686.507812 96.070312 C 686.457031 96.59375 686.382812 97.113281 686.277344 97.628906 C 686.175781 98.148438 686.046875 98.65625 685.894531 99.164062 C 685.742188 99.667969 685.566406 100.164062 685.367188 100.648438 C 685.164062 101.136719 684.941406 101.613281 684.691406 102.078125 C 684.445312 102.542969 684.175781 102.992188 683.882812 103.433594 C 683.589844 103.871094 683.277344 104.292969 682.941406 104.703125 C 682.609375 105.109375 682.257812 105.5 681.882812 105.871094 L 404.410156 383.925781 L 681.882812 661.976562 C 682.445312 662.535156 682.960938 663.132812 683.433594 663.769531 C 683.90625 664.40625 684.328125 665.070312 684.703125 665.769531 C 685.078125 666.46875 685.398438 667.1875 685.664062 667.933594 C 685.933594 668.679688 686.144531 669.441406 686.296875 670.21875 C 686.453125 670.992188 686.550781 671.777344 686.589844 672.566406 C 686.628906 673.359375 686.609375 674.148438 686.53125 674.9375 C 686.453125 675.722656 686.320312 676.503906 686.125 677.269531 C 685.933594 678.039062 685.6875 678.789062 685.382812 679.519531 C 685.078125 680.25 684.722656 680.957031 684.316406 681.636719 C 683.910156 682.3125 683.453125 682.960938 682.953125 683.570312 C 682.449219 684.183594 681.90625 684.753906 681.316406 685.285156 C 680.730469 685.816406 680.105469 686.300781 679.449219 686.742188 C 678.789062 687.179688 678.101562 687.570312 677.386719 687.90625 C 676.667969 688.246094 675.933594 688.527344 675.175781 688.757812 C 674.417969 688.984375 673.644531 689.15625 672.863281 689.273438 C 672.078125 689.386719 671.292969 689.445312 670.5 689.441406 Z M 670.5 689.441406 " fill-opacity="1" fill-rule="nonzero"/><g clip-path="url(#id1)"><path fill="#ffffff" d="M 92.878906 689.441406 C 92.089844 689.445312 91.300781 689.386719 90.515625 689.273438 C 89.734375 689.15625 88.964844 688.984375 88.203125 688.757812 C 87.445312 688.527344 86.710938 688.242188 85.992188 687.90625 C 85.277344 687.570312 84.589844 687.179688 83.929688 686.742188 C 83.273438 686.300781 82.648438 685.816406 82.0625 685.285156 C 81.476562 684.753906 80.929688 684.183594 80.429688 683.570312 C 79.925781 682.960938 79.46875 682.3125 79.0625 681.636719 C 78.65625 680.957031 78.300781 680.25 77.996094 679.519531 C 77.695312 678.789062 77.445312 678.039062 77.253906 677.269531 C 77.0625 676.503906 76.925781 675.722656 76.847656 674.9375 C 76.769531 674.148438 76.75 673.359375 76.789062 672.566406 C 76.828125 671.777344 76.925781 670.992188 77.082031 670.21875 C 77.238281 669.441406 77.449219 668.679688 77.714844 667.933594 C 77.980469 667.1875 78.304688 666.46875 78.675781 665.769531 C 79.050781 665.070312 79.472656 664.40625 79.945312 663.769531 C 80.417969 663.132812 80.933594 662.535156 81.496094 661.976562 L 358.96875 383.925781 L 81.496094 105.871094 C 81.121094 105.5 80.769531 105.109375 80.433594 104.703125 C 80.101562 104.292969 79.785156 103.871094 79.496094 103.433594 C 79.203125 102.992188 78.929688 102.542969 78.683594 102.078125 C 78.433594 101.613281 78.210938 101.136719 78.007812 100.648438 C 77.804688 100.160156 77.628906 99.667969 77.476562 99.160156 C 77.324219 98.65625 77.195312 98.144531 77.09375 97.628906 C 76.988281 97.113281 76.914062 96.589844 76.859375 96.066406 C 76.808594 95.542969 76.785156 95.015625 76.785156 94.488281 C 76.785156 93.960938 76.808594 93.4375 76.863281 92.910156 C 76.914062 92.386719 76.992188 91.867188 77.09375 91.347656 C 77.195312 90.832031 77.324219 90.320312 77.476562 89.816406 C 77.628906 89.3125 77.808594 88.816406 78.007812 88.328125 C 78.210938 87.84375 78.4375 87.367188 78.683594 86.902344 C 78.933594 86.4375 79.203125 85.984375 79.496094 85.546875 C 79.789062 85.109375 80.105469 84.683594 80.4375 84.277344 C 80.773438 83.871094 81.125 83.480469 81.5 83.105469 C 81.871094 82.734375 82.261719 82.378906 82.667969 82.046875 C 83.078125 81.710938 83.5 81.398438 83.9375 81.105469 C 84.375 80.8125 84.828125 80.542969 85.292969 80.292969 C 85.757812 80.042969 86.234375 79.820312 86.722656 79.617188 C 87.207031 79.414062 87.703125 79.238281 88.207031 79.085938 C 88.714844 78.933594 89.222656 78.804688 89.742188 78.703125 C 90.257812 78.597656 90.777344 78.519531 91.304688 78.46875 C 91.828125 78.417969 92.355469 78.390625 92.882812 78.390625 C 93.40625 78.390625 93.933594 78.417969 94.457031 78.46875 C 94.984375 78.519531 95.503906 78.597656 96.019531 78.699219 C 96.539062 78.804688 97.050781 78.929688 97.554688 79.082031 C 98.058594 79.238281 98.554688 79.414062 99.042969 79.617188 C 99.527344 79.816406 100.003906 80.042969 100.46875 80.289062 C 100.933594 80.539062 101.386719 80.808594 101.824219 81.101562 C 102.261719 81.394531 102.6875 81.707031 103.09375 82.042969 C 103.5 82.378906 103.890625 82.730469 104.265625 83.101562 L 393.058594 372.539062 C 393.433594 372.914062 393.785156 373.304688 394.121094 373.710938 C 394.457031 374.117188 394.769531 374.539062 395.0625 374.980469 C 395.359375 375.417969 395.628906 375.867188 395.878906 376.332031 C 396.125 376.796875 396.351562 377.273438 396.554688 377.761719 C 396.757812 378.25 396.933594 378.746094 397.085938 379.25 C 397.242188 379.753906 397.371094 380.265625 397.472656 380.78125 C 397.574219 381.300781 397.652344 381.820312 397.703125 382.347656 C 397.757812 382.871094 397.78125 383.398438 397.78125 383.925781 C 397.78125 384.453125 397.757812 384.980469 397.703125 385.503906 C 397.652344 386.027344 397.574219 386.550781 397.472656 387.066406 C 397.371094 387.585938 397.242188 388.09375 397.085938 388.601562 C 396.933594 389.105469 396.757812 389.601562 396.554688 390.089844 C 396.351562 390.574219 396.125 391.050781 395.878906 391.515625 C 395.628906 391.980469 395.359375 392.433594 395.0625 392.871094 C 394.769531 393.308594 394.457031 393.730469 394.121094 394.140625 C 393.785156 394.546875 393.433594 394.9375 393.058594 395.308594 L 104.265625 684.746094 C 102.753906 686.253906 101.011719 687.414062 99.039062 688.226562 C 97.066406 689.039062 95.011719 689.445312 92.878906 689.441406 Z M 92.878906 689.441406 " fill-opacity="1" fill-rule="nonzero"/></g></svg>