<svg xmlns="http://www.w3.org/2000/svg" xmlns:xlink="http://www.w3.org/1999/xlink" width="1024" zoomAndPan="magnify" viewBox="0 0 768 767.999994" height="1024" preserveAspectRatio="xMidYMid meet" version="1.0"><defs><clipPath id="id1"><path d="M 300 194.496094 L 462 194.496094 L 462 378 L 300 378 Z M 300 194.496094 " clip-rule="nonzero"/></clipPath></defs><path fill="#ffffff" d="M 558.828125 572.707031 L 208.871094 572.707031 C 179.464844 572.707031 155.535156 548.777344 155.535156 519.363281 L 155.535156 296.757812 C 155.535156 267.34375 179.464844 243.410156 208.871094 243.410156 L 311.441406 243.410156 C 315.515625 243.410156 318.824219 246.714844 318.824219 250.792969 C 318.824219 254.867188 315.515625 258.175781 311.441406 258.175781 L 208.871094 258.175781 C 187.605469 258.175781 170.300781 275.480469 170.300781 296.757812 L 170.300781 519.363281 C 170.300781 540.636719 187.605469 557.941406 208.871094 557.941406 L 558.828125 557.941406 C 580.101562 557.941406 597.40625 540.636719 597.40625 519.363281 L 597.40625 296.757812 C 597.40625 275.488281 580.101562 258.175781 558.828125 258.175781 L 456.835938 258.175781 C 452.757812 258.175781 449.453125 254.867188 449.453125 250.792969 C 449.453125 246.714844 452.757812 243.410156 456.835938 243.410156 L 558.828125 243.410156 C 588.242188 243.410156 612.171875 267.335938 612.171875 296.757812 L 612.171875 519.363281 C 612.164062 548.777344 588.242188 572.707031 558.828125 572.707031 Z M 558.828125 572.707031 " fill-opacity="1" fill-rule="nonzero"/><path fill="#ffffff" d="M 383.851562 495.230469 C 381.773438 495.230469 379.796875 494.359375 378.394531 492.824219 L 172.929688 267.449219 C 170.183594 264.4375 170.398438 259.761719 173.410156 257.015625 C 176.429688 254.269531 181.09375 254.492188 183.84375 257.496094 L 383.84375 476.882812 L 583.800781 257.398438 C 586.539062 254.386719 591.210938 254.164062 594.230469 256.914062 C 597.242188 259.660156 597.464844 264.324219 594.71875 267.34375 L 389.3125 492.816406 C 387.902344 494.359375 385.925781 495.230469 383.851562 495.230469 Z M 383.851562 495.230469 " fill-opacity="1" fill-rule="nonzero"/><path fill="#ffffff" d="M 183.183594 564.792969 C 181.234375 564.792969 179.292969 564.023438 177.839844 562.503906 C 175.027344 559.550781 175.136719 554.878906 178.089844 552.0625 L 319.386719 417.367188 C 322.324219 414.546875 327.003906 414.660156 329.824219 417.613281 C 332.640625 420.566406 332.527344 425.238281 329.574219 428.050781 L 188.28125 562.746094 C 186.847656 564.113281 185.015625 564.792969 183.183594 564.792969 Z M 183.183594 564.792969 " fill-opacity="1" fill-rule="nonzero"/><path fill="#ffffff" d="M 590.554688 559.925781 C 588.730469 559.925781 586.914062 559.253906 585.480469 557.917969 L 442.679688 423.105469 C 439.71875 420.300781 439.578125 415.625 442.378906 412.664062 C 445.175781 409.703125 449.851562 409.570312 452.816406 412.363281 L 595.621094 547.175781 C 598.582031 549.980469 598.722656 554.65625 595.921875 557.617188 C 594.46875 559.152344 592.519531 559.925781 590.554688 559.925781 Z M 590.554688 559.925781 " fill-opacity="1" fill-rule="nonzero"/><g clip-path="url(#id1)"><path fill="#ffffff" d="M 414.875 243.644531 L 401.261719 243.644531 L 401.320312 255.25 C 397.464844 246.769531 389.179688 241.40625 377.132812 241.40625 C 356.605469 241.40625 343.757812 257.015625 343.90625 281.351562 L 343.964844 290.070312 C 344.140625 315.503906 356.960938 330.027344 377.941406 330.027344 C 390.902344 330.027344 400.683594 323.335938 405.75 313.054688 C 408.929688 322.863281 416.773438 328.667969 428.171875 328.667969 C 446.910156 328.667969 461.996094 311.496094 461.757812 275.785156 C 461.433594 228.441406 431.296875 194.296875 384.417969 194.296875 C 332.386719 194.296875 300.070312 231.800781 300.425781 285.59375 C 300.808594 344.960938 334.515625 377.136719 386.074219 377.136719 C 408.40625 377.136719 426.902344 372.425781 442.023438 363.9375 L 441.90625 348.3125 C 425.234375 357.925781 406.523438 362.617188 385.976562 362.617188 C 345.804688 362.617188 316.601562 337.832031 316.285156 285.59375 C 315.9375 239.605469 340.304688 208.820312 384.492188 208.820312 C 424.007812 208.820312 446.070312 237.164062 446.335938 275.988281 C 446.511719 303.890625 438.324219 313.726562 428.046875 313.726562 C 420.472656 313.726562 415.289062 308.578125 415.199219 295.636719 Z M 399.546875 288.71875 C 399.671875 306.371094 392.125 315.742188 379.839844 315.742188 C 367.585938 315.742188 359.921875 306.578125 359.808594 289.167969 L 359.757812 282.242188 C 359.667969 265.0625 366.941406 255.695312 379.472656 255.695312 C 392.191406 255.695312 399.382812 265.734375 399.503906 282.914062 Z M 399.546875 288.71875 " fill-opacity="1" fill-rule="nonzero"/></g></svg>