<svg xmlns="http://www.w3.org/2000/svg" xmlns:xlink="http://www.w3.org/1999/xlink" width="1024" zoomAndPan="magnify" viewBox="0 0 768 767.999994" height="1024" preserveAspectRatio="xMidYMid meet" version="1.0"><defs><clipPath id="id1"><path d="M 143.824219 503 L 383 503 L 383 745 L 143.824219 745 Z M 143.824219 503 " clip-rule="nonzero"/></clipPath><clipPath id="id2"><path d="M 143.824219 262 L 383 262 L 383 504 L 143.824219 504 Z M 143.824219 262 " clip-rule="nonzero"/></clipPath><clipPath id="id3"><path d="M 143.824219 21 L 383 21 L 383 263 L 143.824219 263 Z M 143.824219 21 " clip-rule="nonzero"/></clipPath><clipPath id="id4"><path d="M 382 21 L 623.824219 21 L 623.824219 263 L 382 263 Z M 382 21 " clip-rule="nonzero"/></clipPath><clipPath id="id5"><path d="M 382 262 L 623.824219 262 L 623.824219 504 L 382 504 Z M 382 262 " clip-rule="nonzero"/></clipPath></defs><g clip-path="url(#id1)"><path fill="#0acf83" d="M 262.414062 744.726562 C 264.386719 744.726562 266.355469 744.675781 268.324219 744.582031 C 270.292969 744.484375 272.257812 744.339844 274.222656 744.144531 C 276.183594 743.953125 278.140625 743.710938 280.089844 743.421875 C 282.039062 743.132812 283.984375 742.792969 285.917969 742.410156 C 287.851562 742.023438 289.773438 741.59375 291.6875 741.113281 C 293.597656 740.632812 295.496094 740.109375 297.382812 739.535156 C 299.269531 738.960938 301.144531 738.34375 303 737.679688 C 304.855469 737.015625 306.695312 736.304688 308.515625 735.550781 C 310.335938 734.792969 312.140625 733.996094 313.921875 733.152344 C 315.703125 732.308594 317.464844 731.421875 319.203125 730.492188 C 320.941406 729.5625 322.65625 728.589844 324.347656 727.574219 C 326.039062 726.558594 327.703125 725.503906 329.34375 724.410156 C 330.984375 723.3125 332.59375 722.175781 334.179688 721 C 335.761719 719.824219 337.316406 718.613281 338.839844 717.359375 C 340.363281 716.109375 341.855469 714.820312 343.316406 713.496094 C 344.777344 712.171875 346.207031 710.8125 347.597656 709.414062 C 348.992188 708.019531 350.351562 706.59375 351.675781 705.128906 C 353 703.667969 354.289062 702.175781 355.539062 700.648438 C 356.789062 699.125 358.003906 697.570312 359.175781 695.984375 C 360.351562 694.398438 361.484375 692.789062 362.582031 691.148438 C 363.675781 689.507812 364.730469 687.839844 365.746094 686.148438 C 366.757812 684.457031 367.730469 682.738281 368.660156 681 C 369.589844 679.257812 370.476562 677.496094 371.316406 675.714844 C 372.160156 673.929688 372.960938 672.128906 373.714844 670.304688 C 374.46875 668.480469 375.179688 666.640625 375.84375 664.785156 C 376.507812 662.925781 377.125 661.054688 377.695312 659.164062 C 378.269531 657.277344 378.792969 655.375 379.273438 653.460938 C 379.753906 651.546875 380.183594 649.625 380.570312 647.6875 C 380.953125 645.753906 381.292969 643.8125 381.582031 641.859375 C 381.871094 639.90625 382.109375 637.949219 382.304688 635.988281 C 382.496094 634.023438 382.640625 632.054688 382.738281 630.085938 C 382.835938 628.113281 382.882812 626.144531 382.882812 624.171875 L 382.882812 503.613281 L 262.414062 503.613281 C 260.441406 503.613281 258.472656 503.664062 256.503906 503.757812 C 254.535156 503.855469 252.566406 504 250.605469 504.195312 C 248.644531 504.386719 246.6875 504.628906 244.738281 504.917969 C 242.785156 505.207031 240.84375 505.546875 238.910156 505.929688 C 236.976562 506.316406 235.054688 506.746094 233.140625 507.226562 C 231.230469 507.707031 229.328125 508.234375 227.441406 508.804688 C 225.554688 509.378906 223.683594 509.996094 221.828125 510.660156 C 219.972656 511.324219 218.132812 512.035156 216.3125 512.789062 C 214.488281 513.546875 212.6875 514.34375 210.90625 515.1875 C 209.125 516.03125 207.363281 516.917969 205.625 517.847656 C 203.886719 518.777344 202.171875 519.75 200.480469 520.765625 C 198.789062 521.78125 197.125 522.835938 195.484375 523.929688 C 193.84375 525.027344 192.234375 526.164062 190.648438 527.339844 C 189.066406 528.515625 187.511719 529.726562 185.988281 530.980469 C 184.464844 532.230469 182.972656 533.519531 181.511719 534.84375 C 180.050781 536.167969 178.621094 537.527344 177.226562 538.925781 C 175.832031 540.320312 174.476562 541.746094 173.152344 543.210938 C 171.828125 544.671875 170.539062 546.164062 169.289062 547.691406 C 168.039062 549.214844 166.824219 550.769531 165.652344 552.355469 C 164.476562 553.941406 163.339844 555.550781 162.246094 557.191406 C 161.152344 558.832031 160.097656 560.5 159.082031 562.191406 C 158.070312 563.882812 157.097656 565.601562 156.167969 567.339844 C 155.238281 569.082031 154.351562 570.84375 153.507812 572.625 C 152.667969 574.410156 151.867188 576.210938 151.113281 578.035156 C 150.359375 579.859375 149.648438 581.699219 148.984375 583.554688 C 148.320312 585.414062 147.703125 587.285156 147.128906 589.175781 C 146.558594 591.0625 146.03125 592.964844 145.554688 594.878906 C 145.074219 596.792969 144.640625 598.714844 144.257812 600.652344 C 143.875 602.585938 143.535156 604.527344 143.246094 606.480469 C 142.957031 608.433594 142.714844 610.390625 142.523438 612.351562 C 142.328125 614.316406 142.183594 616.285156 142.089844 618.253906 C 141.992188 620.226562 141.941406 622.195312 141.941406 624.171875 C 141.941406 626.144531 141.992188 628.113281 142.089844 630.085938 C 142.183594 632.054688 142.328125 634.023438 142.523438 635.988281 C 142.714844 637.949219 142.957031 639.90625 143.246094 641.859375 C 143.535156 643.8125 143.875 645.753906 144.257812 647.6875 C 144.640625 649.625 145.074219 651.546875 145.554688 653.460938 C 146.03125 655.375 146.558594 657.277344 147.128906 659.164062 C 147.703125 661.054688 148.320312 662.925781 148.984375 664.785156 C 149.648438 666.640625 150.359375 668.480469 151.113281 670.304688 C 151.867188 672.128906 152.667969 673.929688 153.507812 675.714844 C 154.351562 677.496094 155.238281 679.257812 156.167969 681 C 157.097656 682.738281 158.070312 684.457031 159.082031 686.148438 C 160.097656 687.839844 161.152344 689.507812 162.246094 691.148438 C 163.339844 692.789062 164.476562 694.398438 165.652344 695.984375 C 166.824219 697.570312 168.039062 699.125 169.289062 700.648438 C 170.539062 702.175781 171.828125 703.667969 173.152344 705.128906 C 174.476562 706.59375 175.832031 708.019531 177.226562 709.414062 C 178.621094 710.8125 180.050781 712.171875 181.511719 713.496094 C 182.972656 714.820312 184.464844 716.109375 185.988281 717.359375 C 187.511719 718.613281 189.066406 719.824219 190.648438 721 C 192.234375 722.175781 193.84375 723.3125 195.484375 724.410156 C 197.125 725.503906 198.789062 726.558594 200.480469 727.574219 C 202.171875 728.589844 203.886719 729.5625 205.625 730.492188 C 207.363281 731.421875 209.125 732.308594 210.90625 733.152344 C 212.6875 733.996094 214.488281 734.792969 216.3125 735.550781 C 218.132812 736.304688 219.972656 737.015625 221.828125 737.679688 C 223.683594 738.34375 225.554688 738.960938 227.441406 739.535156 C 229.328125 740.109375 231.230469 740.632812 233.140625 741.113281 C 235.054688 741.59375 236.976562 742.023438 238.910156 742.410156 C 240.84375 742.792969 242.785156 743.132812 244.738281 743.421875 C 246.6875 743.710938 248.644531 743.953125 250.605469 744.144531 C 252.566406 744.339844 254.535156 744.484375 256.503906 744.582031 C 258.472656 744.675781 260.441406 744.726562 262.414062 744.726562 Z M 262.414062 744.726562 " fill-opacity="1" fill-rule="nonzero"/></g><g clip-path="url(#id2)"><path fill="#a259ff" d="M 141.941406 383.058594 C 141.941406 381.085938 141.992188 379.113281 142.089844 377.144531 C 142.183594 375.171875 142.328125 373.207031 142.523438 371.242188 C 142.714844 369.277344 142.957031 367.320312 143.246094 365.367188 C 143.535156 363.417969 143.875 361.472656 144.257812 359.539062 C 144.640625 357.605469 145.074219 355.679688 145.554688 353.765625 C 146.03125 351.851562 146.558594 349.949219 147.128906 348.0625 C 147.703125 346.175781 148.320312 344.300781 148.984375 342.445312 C 149.648438 340.585938 150.359375 338.746094 151.113281 336.921875 C 151.867188 335.101562 152.667969 333.296875 153.507812 331.515625 C 154.351562 329.730469 155.238281 327.96875 156.167969 326.230469 C 157.097656 324.488281 158.070312 322.773438 159.082031 321.082031 C 160.097656 319.386719 161.152344 317.722656 162.246094 316.082031 C 163.339844 314.441406 164.476562 312.828125 165.652344 311.242188 C 166.824219 309.660156 168.039062 308.105469 169.289062 306.578125 C 170.539062 305.054688 171.828125 303.558594 173.152344 302.097656 C 174.476562 300.636719 175.832031 299.207031 177.226562 297.8125 C 178.621094 296.417969 180.050781 295.058594 181.511719 293.730469 C 182.972656 292.40625 184.464844 291.117188 185.988281 289.867188 C 187.511719 288.617188 189.066406 287.402344 190.648438 286.226562 C 192.234375 285.050781 193.84375 283.914062 195.484375 282.820312 C 197.125 281.722656 198.789062 280.667969 200.480469 279.652344 C 202.171875 278.640625 203.886719 277.667969 205.625 276.738281 C 207.363281 275.808594 209.125 274.921875 210.90625 274.078125 C 212.6875 273.234375 214.488281 272.433594 216.3125 271.679688 C 218.132812 270.925781 219.972656 270.214844 221.828125 269.550781 C 223.683594 268.886719 225.554688 268.265625 227.441406 267.695312 C 229.328125 267.121094 231.230469 266.59375 233.140625 266.117188 C 235.054688 265.636719 236.976562 265.203125 238.910156 264.820312 C 240.84375 264.433594 242.785156 264.097656 244.738281 263.808594 C 246.6875 263.519531 248.644531 263.277344 250.605469 263.082031 C 252.566406 262.890625 254.535156 262.746094 256.503906 262.648438 C 258.472656 262.550781 260.441406 262.503906 262.414062 262.503906 L 382.882812 262.503906 L 382.882812 503.613281 L 262.414062 503.613281 C 260.441406 503.613281 258.472656 503.566406 256.503906 503.46875 C 254.535156 503.371094 252.566406 503.226562 250.605469 503.035156 C 248.644531 502.839844 246.6875 502.597656 244.738281 502.308594 C 242.785156 502.019531 240.84375 501.683594 238.910156 501.296875 C 236.976562 500.914062 235.054688 500.480469 233.140625 500 C 231.230469 499.523438 229.328125 498.996094 227.441406 498.421875 C 225.554688 497.851562 223.683594 497.230469 221.828125 496.566406 C 219.972656 495.902344 218.132812 495.191406 216.3125 494.4375 C 214.488281 493.683594 212.6875 492.882812 210.90625 492.039062 C 209.125 491.195312 207.363281 490.308594 205.625 489.378906 C 203.886719 488.449219 202.171875 487.476562 200.480469 486.460938 C 198.789062 485.449219 197.125 484.394531 195.484375 483.296875 C 193.84375 482.199219 192.234375 481.066406 190.648438 479.890625 C 189.066406 478.714844 187.511719 477.5 185.988281 476.25 C 184.464844 474.996094 182.972656 473.710938 181.511719 472.382812 C 180.050781 471.058594 178.621094 469.699219 177.226562 468.304688 C 175.832031 466.910156 174.476562 465.480469 173.152344 464.019531 C 171.828125 462.558594 170.539062 461.0625 169.289062 459.539062 C 168.039062 458.011719 166.824219 456.457031 165.652344 454.875 C 164.476562 453.289062 163.339844 451.675781 162.246094 450.035156 C 161.152344 448.394531 160.097656 446.730469 159.082031 445.035156 C 158.070312 443.34375 157.097656 441.628906 156.167969 439.886719 C 155.238281 438.148438 154.351562 436.386719 153.507812 434.601562 C 152.667969 432.820312 151.867188 431.015625 151.113281 429.191406 C 150.359375 427.371094 149.648438 425.53125 148.984375 423.671875 C 148.320312 421.816406 147.703125 419.941406 147.128906 418.054688 C 146.558594 416.164062 146.03125 414.265625 145.554688 412.351562 C 145.074219 410.4375 144.640625 408.511719 144.257812 406.578125 C 143.875 404.640625 143.535156 402.699219 143.246094 400.746094 C 142.957031 398.796875 142.714844 396.839844 142.523438 394.875 C 142.328125 392.910156 142.183594 390.945312 142.089844 388.972656 C 141.992188 387.003906 141.941406 385.03125 141.941406 383.058594 Z M 141.941406 383.058594 " fill-opacity="1" fill-rule="nonzero"/></g><g clip-path="url(#id3)"><path fill="#f24e1e" d="M 141.941406 141.945312 C 141.941406 139.972656 141.992188 138.003906 142.089844 136.035156 C 142.183594 134.0625 142.328125 132.097656 142.523438 130.136719 C 142.714844 128.171875 142.957031 126.214844 143.246094 124.265625 C 143.535156 122.316406 143.871094 120.371094 144.253906 118.4375 C 144.640625 116.503906 145.070312 114.582031 145.550781 112.667969 C 146.027344 110.753906 146.554688 108.855469 147.125 106.96875 C 147.695312 105.082031 148.316406 103.207031 148.976562 101.351562 C 149.640625 99.496094 150.351562 97.65625 151.105469 95.832031 C 151.859375 94.011719 152.65625 92.207031 153.5 90.425781 C 154.339844 88.644531 155.226562 86.882812 156.152344 85.144531 C 157.082031 83.402344 158.054688 81.6875 159.066406 79.996094 C 160.078125 78.304688 161.132812 76.636719 162.226562 75 C 163.320312 73.359375 164.453125 71.746094 165.628906 70.164062 C 166.800781 68.578125 168.011719 67.023438 169.261719 65.5 C 170.511719 63.972656 171.796875 62.480469 173.121094 61.019531 C 174.445312 59.558594 175.800781 58.128906 177.195312 56.734375 C 178.585938 55.339844 180.015625 53.980469 181.472656 52.652344 C 182.933594 51.328125 184.425781 50.039062 185.945312 48.789062 C 187.46875 47.539062 189.023438 46.324219 190.605469 45.148438 C 192.1875 43.972656 193.796875 42.835938 195.433594 41.742188 C 197.074219 40.644531 198.738281 39.589844 200.425781 38.574219 C 202.117188 37.558594 203.828125 36.585938 205.566406 35.65625 C 207.304688 34.726562 209.0625 33.839844 210.84375 32.996094 C 212.625 32.148438 214.425781 31.351562 216.246094 30.59375 C 218.066406 29.839844 219.902344 29.128906 221.757812 28.460938 C 223.613281 27.796875 225.484375 27.175781 227.371094 26.605469 C 229.253906 26.03125 231.152344 25.503906 233.066406 25.023438 C 234.976562 24.542969 236.898438 24.109375 238.832031 23.722656 C 240.761719 23.335938 242.703125 23 244.652344 22.707031 C 246.601562 22.417969 248.558594 22.175781 250.519531 21.980469 C 252.480469 21.785156 254.441406 21.636719 256.410156 21.539062 C 258.378906 21.441406 260.347656 21.390625 262.320312 21.390625 L 382.789062 21.390625 L 382.789062 262.503906 L 262.414062 262.503906 C 260.441406 262.503906 258.472656 262.453125 256.503906 262.355469 C 254.535156 262.261719 252.566406 262.113281 250.605469 261.921875 C 248.644531 261.726562 246.6875 261.488281 244.738281 261.199219 C 242.785156 260.90625 240.84375 260.570312 238.910156 260.1875 C 236.976562 259.800781 235.054688 259.367188 233.140625 258.890625 C 231.230469 258.410156 229.328125 257.882812 227.441406 257.3125 C 225.554688 256.738281 223.683594 256.121094 221.828125 255.457031 C 219.972656 254.789062 218.132812 254.082031 216.3125 253.324219 C 214.488281 252.570312 212.6875 251.769531 210.90625 250.925781 C 209.125 250.085938 207.363281 249.199219 205.625 248.265625 C 203.886719 247.335938 202.171875 246.363281 200.480469 245.351562 C 198.789062 244.335938 197.125 243.28125 195.484375 242.183594 C 193.84375 241.089844 192.234375 239.953125 190.648438 238.777344 C 189.066406 237.601562 187.511719 236.390625 185.988281 235.136719 C 184.464844 233.886719 182.972656 232.597656 181.511719 231.273438 C 180.050781 229.949219 178.621094 228.585938 177.226562 227.191406 C 175.832031 225.796875 174.476562 224.367188 173.152344 222.90625 C 171.828125 221.445312 170.539062 219.953125 169.289062 218.425781 C 168.039062 216.902344 166.824219 215.347656 165.652344 213.761719 C 164.476562 212.175781 163.339844 210.5625 162.246094 208.921875 C 161.152344 207.285156 160.097656 205.617188 159.082031 203.925781 C 158.070312 202.230469 157.097656 200.515625 156.167969 198.777344 C 155.238281 197.035156 154.351562 195.273438 153.507812 193.492188 C 152.667969 191.707031 151.867188 189.902344 151.113281 188.082031 C 150.359375 186.257812 149.648438 184.417969 148.984375 182.558594 C 148.320312 180.703125 147.703125 178.828125 147.128906 176.941406 C 146.558594 175.054688 146.03125 173.152344 145.554688 171.238281 C 145.074219 169.324219 144.640625 167.402344 144.257812 165.464844 C 143.875 163.53125 143.535156 161.585938 143.246094 159.636719 C 142.957031 157.683594 142.714844 155.726562 142.523438 153.761719 C 142.328125 151.800781 142.183594 149.832031 142.089844 147.863281 C 141.992188 145.890625 141.941406 143.917969 141.941406 141.945312 Z M 141.941406 141.945312 " fill-opacity="1" fill-rule="nonzero"/></g><g clip-path="url(#id4)"><path fill="#ff7262" d="M 382.882812 21.390625 L 503.355469 21.390625 C 505.328125 21.390625 507.296875 21.4375 509.265625 21.535156 C 511.234375 21.632812 513.199219 21.777344 515.164062 21.972656 C 517.125 22.164062 519.082031 22.40625 521.03125 22.695312 C 522.980469 22.984375 524.921875 23.320312 526.855469 23.707031 C 528.792969 24.09375 530.714844 24.523438 532.625 25.003906 C 534.539062 25.484375 536.4375 26.007812 538.324219 26.582031 C 540.210938 27.15625 542.082031 27.773438 543.941406 28.4375 C 545.796875 29.101562 547.636719 29.8125 549.457031 30.566406 C 551.277344 31.324219 553.082031 32.121094 554.863281 32.964844 C 556.644531 33.808594 558.40625 34.695312 560.144531 35.625 C 561.882812 36.554688 563.597656 37.527344 565.289062 38.542969 C 566.980469 39.554688 568.644531 40.613281 570.285156 41.707031 C 571.925781 42.804688 573.535156 43.941406 575.117188 45.113281 C 576.703125 46.289062 578.257812 47.503906 579.78125 48.753906 C 581.304688 50.007812 582.796875 51.296875 584.257812 52.621094 C 585.71875 53.945312 587.144531 55.304688 588.539062 56.699219 C 589.933594 58.09375 591.292969 59.523438 592.617188 60.984375 C 593.941406 62.449219 595.230469 63.941406 596.480469 65.464844 C 597.730469 66.992188 598.941406 68.546875 600.117188 70.132812 C 601.292969 71.714844 602.425781 73.328125 603.523438 74.96875 C 604.617188 76.609375 605.671875 78.277344 606.6875 79.96875 C 607.699219 81.660156 608.671875 83.375 609.601562 85.117188 C 610.53125 86.855469 611.414062 88.617188 612.257812 90.402344 C 613.101562 92.1875 613.902344 93.988281 614.65625 95.8125 C 615.410156 97.632812 616.117188 99.476562 616.78125 101.332031 C 617.449219 103.191406 618.066406 105.0625 618.636719 106.949219 C 619.210938 108.839844 619.734375 110.738281 620.214844 112.652344 C 620.695312 114.566406 621.125 116.492188 621.511719 118.425781 C 621.894531 120.363281 622.230469 122.304688 622.519531 124.257812 C 622.8125 126.207031 623.050781 128.167969 623.246094 130.128906 C 623.4375 132.09375 623.582031 134.058594 623.679688 136.03125 C 623.777344 138 623.824219 139.972656 623.824219 141.945312 C 623.824219 143.917969 623.777344 145.890625 623.679688 147.863281 C 623.582031 149.832031 623.4375 151.800781 623.246094 153.761719 C 623.050781 155.726562 622.8125 157.683594 622.519531 159.636719 C 622.230469 161.585938 621.894531 163.53125 621.511719 165.464844 C 621.125 167.402344 620.695312 169.324219 620.214844 171.238281 C 619.734375 173.152344 619.210938 175.054688 618.636719 176.941406 C 618.066406 178.828125 617.449219 180.703125 616.78125 182.558594 C 616.117188 184.417969 615.410156 186.257812 614.65625 188.082031 C 613.902344 189.902344 613.101562 191.707031 612.257812 193.492188 C 611.414062 195.273438 610.53125 197.035156 609.601562 198.777344 C 608.671875 200.515625 607.699219 202.230469 606.6875 203.925781 C 605.671875 205.617188 604.617188 207.285156 603.523438 208.921875 C 602.425781 210.5625 601.292969 212.175781 600.117188 213.761719 C 598.941406 215.347656 597.730469 216.902344 596.480469 218.425781 C 595.230469 219.953125 593.941406 221.445312 592.617188 222.90625 C 591.292969 224.367188 589.933594 225.796875 588.539062 227.191406 C 587.144531 228.585938 585.71875 229.949219 584.257812 231.273438 C 582.796875 232.597656 581.304688 233.886719 579.78125 235.136719 C 578.257812 236.390625 576.703125 237.601562 575.117188 238.777344 C 573.535156 239.953125 571.925781 241.089844 570.285156 242.183594 C 568.644531 243.28125 566.980469 244.335938 565.289062 245.351562 C 563.597656 246.363281 561.882812 247.335938 560.144531 248.265625 C 558.40625 249.199219 556.644531 250.085938 554.863281 250.925781 C 553.082031 251.769531 551.277344 252.570312 549.457031 253.324219 C 547.636719 254.082031 545.796875 254.789062 543.941406 255.457031 C 542.082031 256.121094 540.210938 256.738281 538.324219 257.3125 C 536.4375 257.882812 534.539062 258.410156 532.625 258.890625 C 530.714844 259.367188 528.792969 259.800781 526.855469 260.1875 C 524.921875 260.570312 522.980469 260.90625 521.03125 261.199219 C 519.082031 261.488281 517.125 261.726562 515.164062 261.921875 C 513.199219 262.113281 511.234375 262.261719 509.265625 262.355469 C 507.296875 262.453125 505.328125 262.503906 503.355469 262.503906 L 382.882812 262.503906 Z M 382.882812 21.390625 " fill-opacity="1" fill-rule="nonzero"/></g><g clip-path="url(#id5)"><path fill="#1abcfe" d="M 623.824219 383.058594 C 623.824219 385.03125 623.777344 387.003906 623.679688 388.972656 C 623.582031 390.945312 623.4375 392.910156 623.246094 394.875 C 623.050781 396.839844 622.8125 398.796875 622.519531 400.746094 C 622.230469 402.699219 621.894531 404.640625 621.511719 406.578125 C 621.125 408.511719 620.695312 410.4375 620.214844 412.351562 C 619.734375 414.265625 619.210938 416.164062 618.636719 418.054688 C 618.066406 419.941406 617.449219 421.816406 616.785156 423.671875 C 616.117188 425.53125 615.410156 427.371094 614.65625 429.191406 C 613.902344 431.015625 613.101562 432.820312 612.257812 434.601562 C 611.414062 436.386719 610.53125 438.148438 609.601562 439.886719 C 608.671875 441.628906 607.699219 443.34375 606.6875 445.035156 C 605.671875 446.730469 604.617188 448.394531 603.523438 450.035156 C 602.425781 451.675781 601.292969 453.289062 600.117188 454.875 C 598.941406 456.457031 597.730469 458.011719 596.480469 459.539062 C 595.230469 461.0625 593.941406 462.558594 592.617188 464.019531 C 591.292969 465.480469 589.933594 466.910156 588.539062 468.304688 C 587.144531 469.699219 585.71875 471.058594 584.257812 472.382812 C 582.796875 473.710938 581.304688 474.996094 579.78125 476.25 C 578.257812 477.5 576.703125 478.714844 575.117188 479.890625 C 573.535156 481.066406 571.925781 482.199219 570.285156 483.296875 C 568.644531 484.394531 566.980469 485.449219 565.289062 486.460938 C 563.597656 487.476562 561.882812 488.449219 560.144531 489.378906 C 558.40625 490.308594 556.644531 491.195312 554.863281 492.039062 C 553.082031 492.882812 551.277344 493.683594 549.457031 494.4375 C 547.636719 495.191406 545.796875 495.902344 543.941406 496.566406 C 542.082031 497.230469 540.210938 497.851562 538.324219 498.421875 C 536.4375 498.996094 534.539062 499.523438 532.625 500 C 530.714844 500.480469 528.792969 500.914062 526.855469 501.296875 C 524.921875 501.683594 522.980469 502.019531 521.03125 502.308594 C 519.082031 502.597656 517.125 502.839844 515.164062 503.035156 C 513.199219 503.226562 511.234375 503.371094 509.265625 503.46875 C 507.296875 503.566406 505.328125 503.613281 503.355469 503.613281 C 501.382812 503.613281 499.414062 503.566406 497.445312 503.46875 C 495.472656 503.371094 493.507812 503.226562 491.546875 503.035156 C 489.585938 502.839844 487.628906 502.597656 485.679688 502.308594 C 483.726562 502.019531 481.785156 501.683594 479.851562 501.296875 C 477.917969 500.914062 475.996094 500.480469 474.082031 500 C 472.171875 499.523438 470.269531 498.996094 468.382812 498.421875 C 466.496094 497.851562 464.625 497.230469 462.769531 496.566406 C 460.914062 495.902344 459.074219 495.191406 457.253906 494.4375 C 455.429688 493.683594 453.628906 492.882812 451.847656 492.039062 C 450.066406 491.195312 448.304688 490.308594 446.566406 489.378906 C 444.828125 488.449219 443.113281 487.476562 441.421875 486.460938 C 439.730469 485.449219 438.0625 484.394531 436.425781 483.296875 C 434.785156 482.199219 433.175781 481.066406 431.589844 479.890625 C 430.007812 478.714844 428.453125 477.5 426.929688 476.25 C 425.40625 474.996094 423.914062 473.710938 422.453125 472.382812 C 420.992188 471.058594 419.5625 469.699219 418.167969 468.304688 C 416.773438 466.910156 415.414062 465.480469 414.09375 464.019531 C 412.769531 462.558594 411.480469 461.0625 410.230469 459.539062 C 408.980469 458.011719 407.765625 456.457031 406.59375 454.875 C 405.417969 453.289062 404.28125 451.675781 403.1875 450.035156 C 402.09375 448.394531 401.039062 446.730469 400.023438 445.035156 C 399.011719 443.34375 398.039062 441.628906 397.109375 439.886719 C 396.179688 438.148438 395.292969 436.386719 394.449219 434.601562 C 393.609375 432.820312 392.808594 431.015625 392.054688 429.191406 C 391.300781 427.371094 390.589844 425.53125 389.925781 423.671875 C 389.261719 421.816406 388.644531 419.941406 388.070312 418.054688 C 387.5 416.164062 386.972656 414.265625 386.496094 412.351562 C 386.015625 410.4375 385.582031 408.511719 385.199219 406.578125 C 384.8125 404.640625 384.476562 402.699219 384.1875 400.746094 C 383.898438 398.796875 383.65625 396.839844 383.464844 394.875 C 383.269531 392.910156 383.125 390.945312 383.03125 388.972656 C 382.933594 387.003906 382.882812 385.03125 382.882812 383.058594 C 382.882812 381.085938 382.933594 379.113281 383.03125 377.144531 C 383.125 375.171875 383.269531 373.207031 383.464844 371.242188 C 383.65625 369.277344 383.898438 367.320312 384.1875 365.367188 C 384.476562 363.417969 384.8125 361.472656 385.199219 359.539062 C 385.582031 357.605469 386.015625 355.679688 386.496094 353.765625 C 386.972656 351.851562 387.5 349.949219 388.070312 348.0625 C 388.644531 346.175781 389.261719 344.300781 389.925781 342.445312 C 390.589844 340.585938 391.300781 338.746094 392.054688 336.921875 C 392.808594 335.101562 393.609375 333.296875 394.449219 331.515625 C 395.292969 329.730469 396.179688 327.96875 397.109375 326.230469 C 398.039062 324.488281 399.011719 322.773438 400.023438 321.082031 C 401.039062 319.386719 402.09375 317.722656 403.1875 316.082031 C 404.28125 314.441406 405.417969 312.828125 406.59375 311.242188 C 407.765625 309.660156 408.980469 308.101562 410.230469 306.578125 C 411.480469 305.054688 412.769531 303.558594 414.09375 302.097656 C 415.414062 300.636719 416.773438 299.207031 418.167969 297.8125 C 419.5625 296.417969 420.992188 295.058594 422.453125 293.730469 C 423.914062 292.40625 425.40625 291.117188 426.929688 289.867188 C 428.453125 288.617188 430.007812 287.402344 431.589844 286.226562 C 433.175781 285.050781 434.785156 283.914062 436.425781 282.820312 C 438.0625 281.722656 439.730469 280.667969 441.421875 279.652344 C 443.113281 278.640625 444.828125 277.667969 446.566406 276.738281 C 448.304688 275.808594 450.066406 274.921875 451.847656 274.078125 C 453.628906 273.234375 455.429688 272.433594 457.253906 271.679688 C 459.074219 270.925781 460.914062 270.214844 462.769531 269.550781 C 464.625 268.886719 466.496094 268.265625 468.382812 267.695312 C 470.269531 267.121094 472.171875 266.59375 474.082031 266.117188 C 475.996094 265.636719 477.917969 265.203125 479.851562 264.820312 C 481.785156 264.433594 483.726562 264.097656 485.679688 263.808594 C 487.628906 263.519531 489.585938 263.277344 491.546875 263.082031 C 493.507812 262.890625 495.472656 262.746094 497.445312 262.648438 C 499.414062 262.550781 501.382812 262.503906 503.355469 262.503906 C 505.328125 262.503906 507.296875 262.550781 509.265625 262.648438 C 511.234375 262.746094 513.199219 262.890625 515.164062 263.082031 C 517.125 263.277344 519.082031 263.519531 521.03125 263.808594 C 522.980469 264.097656 524.921875 264.433594 526.855469 264.820312 C 528.792969 265.203125 530.714844 265.636719 532.625 266.117188 C 534.539062 266.59375 536.4375 267.121094 538.324219 267.695312 C 540.210938 268.265625 542.082031 268.886719 543.941406 269.550781 C 545.796875 270.214844 547.636719 270.925781 549.457031 271.679688 C 551.277344 272.433594 553.082031 273.234375 554.863281 274.078125 C 556.644531 274.921875 558.40625 275.808594 560.144531 276.738281 C 561.882812 277.667969 563.597656 278.640625 565.289062 279.652344 C 566.980469 280.667969 568.644531 281.722656 570.285156 282.820312 C 571.925781 283.914062 573.535156 285.050781 575.117188 286.226562 C 576.703125 287.402344 578.257812 288.617188 579.78125 289.867188 C 581.304688 291.117188 582.796875 292.40625 584.257812 293.730469 C 585.71875 295.058594 587.144531 296.417969 588.539062 297.8125 C 589.933594 299.207031 591.292969 300.636719 592.617188 302.097656 C 593.941406 303.558594 595.230469 305.054688 596.480469 306.578125 C 597.730469 308.105469 598.941406 309.660156 600.117188 311.242188 C 601.292969 312.828125 602.425781 314.441406 603.523438 316.082031 C 604.617188 317.722656 605.671875 319.386719 606.6875 321.082031 C 607.699219 322.773438 608.671875 324.488281 609.601562 326.230469 C 610.53125 327.96875 611.414062 329.730469 612.257812 331.515625 C 613.101562 333.296875 613.902344 335.101562 614.65625 336.921875 C 615.410156 338.746094 616.117188 340.585938 616.78125 342.445312 C 617.449219 344.300781 618.066406 346.175781 618.636719 348.0625 C 619.210938 349.949219 619.734375 351.851562 620.214844 353.765625 C 620.695312 355.679688 621.125 357.605469 621.511719 359.539062 C 621.894531 361.472656 622.230469 363.417969 622.523438 365.367188 C 622.8125 367.320312 623.050781 369.277344 623.246094 371.242188 C 623.4375 373.207031 623.582031 375.171875 623.679688 377.144531 C 623.777344 379.113281 623.824219 381.085938 623.824219 383.058594 Z M 623.824219 383.058594 " fill-opacity="1" fill-rule="nonzero"/></g></svg>