<svg xmlns="http://www.w3.org/2000/svg" xmlns:xlink="http://www.w3.org/1999/xlink" width="1024" zoomAndPan="magnify" viewBox="0 0 768 767.999994" height="1024" preserveAspectRatio="xMidYMid meet" version="1.0"><path fill="#ffffff" d="M 384 0 C 171.921875 0 0 171.921875 0 384 C 0 596.078125 171.921875 768 384 768 C 596.078125 768 768 596.078125 768 384 C 768 171.921875 596.078125 0 384 0 " fill-opacity="1" fill-rule="nonzero"/><path fill="#000000" d="M 384 7.199219 C 171.839844 7.199219 0 179.039062 0 391.199219 C 0 561.121094 109.921875 704.640625 262.558594 755.519531 C 281.761719 758.878906 288.960938 747.359375 288.960938 737.28125 C 288.960938 728.160156 288.480469 697.921875 288.480469 665.761719 C 192 683.519531 167.039062 642.238281 159.359375 620.640625 C 155.039062 609.601562 136.320312 575.519531 120 566.398438 C 106.558594 559.199219 87.359375 541.441406 119.519531 540.960938 C 149.761719 540.480469 171.359375 568.800781 178.558594 580.320312 C 213.121094 638.398438 268.320312 622.078125 290.398438 612 C 293.761719 587.039062 303.839844 570.238281 314.878906 560.640625 C 229.441406 551.039062 140.160156 517.921875 140.160156 371.039062 C 140.160156 329.28125 155.039062 294.71875 179.519531 267.839844 C 175.679688 258.238281 162.238281 218.878906 183.359375 166.078125 C 183.359375 166.078125 215.519531 156 288.960938 205.441406 C 319.679688 196.800781 352.320312 192.480469 384.960938 192.480469 C 417.601562 192.480469 450.238281 196.800781 480.960938 205.441406 C 554.398438 155.519531 586.558594 166.078125 586.558594 166.078125 C 607.679688 218.878906 594.238281 258.238281 590.398438 267.839844 C 614.878906 294.71875 629.761719 328.800781 629.761719 371.039062 C 629.761719 518.398438 540 551.039062 454.558594 560.640625 C 468.480469 572.640625 480.480469 595.679688 480.480469 631.679688 C 480.480469 683.039062 480 724.320312 480 737.28125 C 480 747.359375 487.199219 759.359375 506.398438 755.519531 C 511.128906 753.921875 515.820312 752.234375 520.484375 750.457031 C 525.144531 748.679688 529.773438 746.808594 534.359375 744.851562 C 538.949219 742.890625 543.5 740.84375 548.007812 738.707031 C 552.519531 736.570312 556.984375 734.347656 561.40625 732.039062 C 565.832031 729.730469 570.207031 727.335938 574.535156 724.855469 C 578.867188 722.375 583.144531 719.8125 587.375 717.167969 C 591.605469 714.519531 595.78125 711.792969 599.90625 708.984375 C 604.03125 706.175781 608.097656 703.289062 612.109375 700.320312 C 616.121094 697.355469 620.074219 694.3125 623.964844 691.191406 C 627.859375 688.070312 631.691406 684.875 635.457031 681.605469 C 639.226562 678.335938 642.929688 674.992188 646.570312 671.578125 C 650.207031 668.167969 653.777344 664.683594 657.28125 661.128906 C 660.785156 657.578125 664.214844 653.957031 667.578125 650.273438 C 670.941406 646.585938 674.230469 642.835938 677.445312 639.023438 C 680.660156 635.210938 683.800781 631.335938 686.867188 627.398438 C 689.933594 623.460938 692.921875 619.46875 695.828125 615.414062 C 698.738281 611.363281 701.570312 607.257812 704.320312 603.09375 C 707.070312 598.933594 709.738281 594.71875 712.320312 590.453125 C 714.90625 586.1875 717.410156 581.871094 719.828125 577.507812 C 722.246094 573.144531 724.578125 568.734375 726.824219 564.28125 C 729.070312 559.828125 731.226562 555.332031 733.300781 550.792969 C 735.371094 546.257812 737.351562 541.679688 739.246094 537.066406 C 741.136719 532.449219 742.941406 527.800781 744.652344 523.113281 C 746.363281 518.429688 747.984375 513.710938 749.511719 508.964844 C 751.042969 504.214844 752.476562 499.441406 753.820312 494.636719 C 755.160156 489.832031 756.410156 485.003906 757.5625 480.152344 C 758.71875 475.300781 759.777344 470.425781 760.742188 465.535156 C 761.707031 460.640625 762.578125 455.730469 763.351562 450.800781 C 764.125 445.875 764.800781 440.933594 765.382812 435.980469 C 765.964844 431.027344 766.449219 426.0625 766.835938 421.089844 C 767.222656 416.117188 767.515625 411.140625 767.707031 406.15625 C 767.902344 401.171875 768 396.1875 768 391.199219 C 768 179.039062 596.160156 7.199219 384 7.199219 Z M 384 7.199219 " fill-opacity="1" fill-rule="nonzero"/></svg>