<svg xmlns="http://www.w3.org/2000/svg" xmlns:xlink="http://www.w3.org/1999/xlink" width="1024" zoomAndPan="magnify" viewBox="0 0 768 767.999994" height="1024" preserveAspectRatio="xMidYMid meet" version="1.0"><defs><clipPath id="id1"><path d="M 22.742188 22.742188 L 744.992188 22.742188 L 744.992188 744.992188 L 22.742188 744.992188 Z M 22.742188 22.742188 " clip-rule="nonzero"/></clipPath></defs><path fill="#ffffff" d="M 543.285156 428.285156 L 543.285156 537.808594 L 475.441406 537.808594 L 475.441406 428.285156 C 475.441406 412.464844 475.441406 374.132812 440.757812 374.132812 C 401.207031 374.132812 399.078125 413.988281 399.078125 413.988281 L 399.078125 538.113281 L 330.929688 538.113281 L 330.929688 318.761719 L 399.078125 318.761719 L 399.078125 348.878906 C 415.203125 316.023438 448.0625 313.589844 469.660156 313.589844 C 494.304688 313.589844 516.210938 323.019531 528.988281 344.316406 C 539.9375 362.265625 543.285156 387.824219 543.285156 428.285156 Z M 543.285156 428.285156 " fill-opacity="1" fill-rule="nonzero"/><path fill="#ffffff" d="M 303.550781 249.699219 C 303.550781 250.996094 303.488281 252.289062 303.359375 253.578125 C 303.234375 254.867188 303.042969 256.144531 302.789062 257.417969 C 302.539062 258.6875 302.222656 259.941406 301.847656 261.179688 C 301.472656 262.421875 301.035156 263.640625 300.539062 264.835938 C 300.042969 266.03125 299.492188 267.203125 298.878906 268.34375 C 298.269531 269.488281 297.605469 270.597656 296.882812 271.671875 C 296.164062 272.75 295.394531 273.789062 294.574219 274.792969 C 293.75 275.792969 292.882812 276.75 291.964844 277.667969 C 291.050781 278.582031 290.089844 279.453125 289.089844 280.273438 C 288.089844 281.09375 287.050781 281.867188 285.972656 282.585938 C 284.894531 283.304688 283.785156 283.96875 282.644531 284.582031 C 281.5 285.191406 280.332031 285.746094 279.136719 286.242188 C 277.9375 286.734375 276.71875 287.171875 275.480469 287.546875 C 274.242188 287.925781 272.984375 288.238281 271.714844 288.492188 C 270.445312 288.742188 269.164062 288.933594 267.875 289.0625 C 266.585938 289.1875 265.296875 289.25 264 289.25 C 262.703125 289.25 261.414062 289.1875 260.125 289.0625 C 258.832031 288.933594 257.554688 288.742188 256.285156 288.492188 C 255.011719 288.238281 253.757812 287.925781 252.519531 287.546875 C 251.277344 287.171875 250.0625 286.734375 248.863281 286.242188 C 247.667969 285.746094 246.5 285.191406 245.355469 284.582031 C 244.214844 283.96875 243.105469 283.304688 242.027344 282.585938 C 240.949219 281.867188 239.910156 281.09375 238.910156 280.273438 C 237.90625 279.453125 236.949219 278.582031 236.035156 277.667969 C 235.117188 276.75 234.25 275.792969 233.425781 274.792969 C 232.605469 273.789062 231.835938 272.75 231.113281 271.671875 C 230.394531 270.597656 229.730469 269.488281 229.121094 268.34375 C 228.507812 267.203125 227.957031 266.03125 227.460938 264.835938 C 226.964844 263.640625 226.527344 262.421875 226.152344 261.179688 C 225.777344 259.941406 225.460938 258.6875 225.210938 257.417969 C 224.957031 256.144531 224.765625 254.867188 224.640625 253.578125 C 224.511719 252.289062 224.449219 250.996094 224.449219 249.699219 C 224.449219 248.40625 224.511719 247.113281 224.640625 245.824219 C 224.765625 244.535156 224.957031 243.253906 225.210938 241.984375 C 225.460938 240.714844 225.777344 239.460938 226.152344 238.21875 C 226.527344 236.980469 226.964844 235.761719 227.460938 234.566406 C 227.957031 233.367188 228.507812 232.199219 229.121094 231.058594 C 229.730469 229.914062 230.394531 228.804688 231.113281 227.726562 C 231.835938 226.652344 232.605469 225.613281 233.425781 224.609375 C 234.25 223.609375 235.117188 222.648438 236.035156 221.734375 C 236.949219 220.820312 237.90625 219.949219 238.910156 219.128906 C 239.910156 218.304688 240.949219 217.535156 242.027344 216.816406 C 243.105469 216.097656 244.214844 215.429688 245.355469 214.820312 C 246.5 214.210938 247.667969 213.65625 248.863281 213.160156 C 250.0625 212.664062 251.277344 212.230469 252.519531 211.851562 C 253.757812 211.476562 255.011719 211.164062 256.285156 210.910156 C 257.554688 210.65625 258.832031 210.46875 260.125 210.339844 C 261.414062 210.214844 262.703125 210.148438 264 210.148438 C 265.296875 210.148438 266.585938 210.214844 267.875 210.339844 C 269.164062 210.46875 270.445312 210.65625 271.714844 210.910156 C 272.984375 211.164062 274.242188 211.476562 275.480469 211.851562 C 276.71875 212.230469 277.9375 212.664062 279.136719 213.160156 C 280.332031 213.65625 281.5 214.210938 282.644531 214.820312 C 283.785156 215.429688 284.894531 216.097656 285.972656 216.816406 C 287.050781 217.535156 288.089844 218.304688 289.089844 219.128906 C 290.089844 219.949219 291.050781 220.820312 291.964844 221.734375 C 292.882812 222.648438 293.75 223.609375 294.574219 224.609375 C 295.394531 225.613281 296.164062 226.652344 296.882812 227.726562 C 297.605469 228.804688 298.269531 229.914062 298.878906 231.058594 C 299.492188 232.199219 300.042969 233.367188 300.539062 234.566406 C 301.035156 235.761719 301.472656 236.980469 301.847656 238.21875 C 302.222656 239.460938 302.539062 240.714844 302.789062 241.984375 C 303.042969 243.253906 303.234375 244.535156 303.359375 245.824219 C 303.488281 247.113281 303.550781 248.40625 303.550781 249.699219 Z M 303.550781 249.699219 " fill-opacity="1" fill-rule="nonzero"/><path fill="#ffffff" d="M 230.230469 318.761719 L 298.074219 318.761719 L 298.074219 538.113281 L 230.230469 538.113281 Z M 230.230469 318.761719 " fill-opacity="1" fill-rule="nonzero"/><g clip-path="url(#id1)"><path fill="#ffffff" d="M 383.867188 744.992188 C 184.898438 744.992188 22.742188 583.140625 22.742188 383.867188 C 22.742188 184.59375 184.898438 22.742188 383.867188 22.742188 C 582.835938 22.742188 744.992188 184.898438 744.992188 383.867188 C 744.992188 582.835938 583.140625 744.992188 383.867188 744.992188 Z M 383.867188 42.519531 C 195.546875 42.519531 42.519531 195.546875 42.519531 383.867188 C 42.519531 572.1875 195.546875 725.21875 383.867188 725.21875 C 572.1875 725.21875 725.21875 572.1875 725.21875 383.867188 C 725.21875 195.546875 572.1875 42.519531 383.867188 42.519531 Z M 383.867188 42.519531 " fill-opacity="1" fill-rule="nonzero"/></g></svg>