<svg xmlns="http://www.w3.org/2000/svg" xmlns:xlink="http://www.w3.org/1999/xlink" width="1024" zoomAndPan="magnify" viewBox="0 0 768 767.999994" height="1024" preserveAspectRatio="xMidYMid meet" version="1.0"><defs><filter x="0%" y="0%" width="100%" height="100%" id="id1"><feColorMatrix values="0 0 0 0 1 0 0 0 0 1 0 0 0 0 1 0 0 0 1 0" color-interpolation-filters="sRGB"/></filter><mask id="id2"><g filter="url(#id1)"><rect x="-76.8" width="921.6" fill="#000000" y="-76.799999" height="921.599993" fill-opacity="0.7882"/></g></mask><clipPath id="id3"><path d="M 0.800781 0.808594 L 459.800781 0.808594 L 459.800781 459.808594 L 0.800781 459.808594 Z M 0.800781 0.808594 " clip-rule="nonzero"/></clipPath><clipPath id="id4"><rect x="0" width="460" y="0" height="461"/></clipPath><mask id="id5"><g filter="url(#id1)"><rect x="-76.8" width="921.6" fill="#000000" y="-76.799999" height="921.599993" fill-opacity="0.8863"/></g></mask><clipPath id="id6"><path d="M 0.410156 0.632812 L 377.660156 0.632812 L 377.660156 377.882812 L 0.410156 377.882812 Z M 0.410156 0.632812 " clip-rule="nonzero"/></clipPath><clipPath id="id7"><rect x="0" width="378" y="0" height="378"/></clipPath><mask id="id8"><g filter="url(#id1)"><rect x="-76.8" width="921.6" fill="#000000" y="-76.799999" height="921.599993" fill-opacity="0.6471"/></g></mask><clipPath id="id9"><path d="M 0.957031 0.867188 L 421.707031 0.867188 L 421.707031 421.617188 L 0.957031 421.617188 Z M 0.957031 0.867188 " clip-rule="nonzero"/></clipPath><clipPath id="id10"><rect x="0" width="422" y="0" height="422"/></clipPath></defs><g mask="url(#id2)"><g transform="matrix(1, 0, 0, 1, 76, 247)"><g clip-path="url(#id4)"><g clip-path="url(#id3)"><path fill="#be3e82" d="M 230.300781 0.808594 C 103.550781 0.808594 0.800781 103.558594 0.800781 230.308594 C 0.800781 357.054688 103.550781 459.808594 230.300781 459.808594 C 357.050781 459.808594 459.800781 357.054688 459.800781 230.308594 C 459.800781 103.558594 357.050781 0.808594 230.300781 0.808594 " fill-opacity="1" fill-rule="nonzero"/></g></g></g></g><g mask="url(#id5)"><g transform="matrix(1, 0, 0, 1, 34, 30)"><g clip-path="url(#id7)"><g clip-path="url(#id6)"><path fill="#e43f6f" d="M 189.035156 0.632812 C 84.859375 0.632812 0.410156 85.082031 0.410156 189.257812 C 0.410156 293.429688 84.859375 377.882812 189.035156 377.882812 C 293.207031 377.882812 377.660156 293.429688 377.660156 189.257812 C 377.660156 85.082031 293.207031 0.632812 189.035156 0.632812 " fill-opacity="1" fill-rule="nonzero"/></g></g></g></g><g mask="url(#id8)"><g transform="matrix(1, 0, 0, 1, 324, 135)"><g clip-path="url(#id10)"><g clip-path="url(#id9)"><path fill="#dcedc8" d="M 211.332031 0.867188 C 95.144531 0.867188 0.957031 95.054688 0.957031 211.242188 C 0.957031 327.429688 95.144531 421.617188 211.332031 421.617188 C 327.519531 421.617188 421.707031 327.429688 421.707031 211.242188 C 421.707031 95.054688 327.519531 0.867188 211.332031 0.867188 " fill-opacity="1" fill-rule="nonzero"/></g></g></g></g></svg>