<svg xmlns="http://www.w3.org/2000/svg" xmlns:xlink="http://www.w3.org/1999/xlink" width="1024" zoomAndPan="magnify" viewBox="0 0 768 767.999994" height="1024" preserveAspectRatio="xMidYMid meet" version="1.0"><path fill="#ffffff" d="M 552.871094 299.566406 C 552.871094 299.566406 558.691406 422.171875 465.199219 497.875 C 325.769531 611.101562 175.339844 519.226562 175.339844 519.226562 C 175.339844 519.226562 211.894531 519.871094 244.246094 511.136719 C 276.597656 502.402344 299.566406 481.699219 299.566406 481.699219 C 299.566406 481.699219 264.304688 474.257812 246.1875 460.996094 C 227.746094 447.730469 220.953125 422.171875 220.953125 422.171875 C 220.953125 422.171875 232.921875 423.144531 240.6875 423.144531 C 248.453125 422.820312 257.832031 419.261719 257.832031 419.261719 C 257.832031 419.261719 232.601562 416.351562 208.984375 389.824219 C 190.542969 369.117188 191.839844 334.503906 191.839844 334.503906 C 191.839844 334.503906 202.835938 340.972656 208.984375 342.589844 C 214.808594 344.210938 226.128906 344.210938 226.128906 344.210938 C 226.128906 344.210938 204.132812 330.945312 194.101562 297.300781 C 184.398438 263.332031 203.160156 229.042969 203.160156 229.042969 C 203.160156 229.042969 235.511719 268.507812 284.359375 294.066406 C 333.210938 319.621094 379.148438 318.652344 379.148438 318.652344 C 379.148438 318.652344 372.355469 298.269531 384 268.507812 C 395.644531 238.421875 422.171875 217.070312 462.289062 213.835938 C 502.402344 210.601562 527.960938 241.011719 527.960938 241.011719 C 527.960938 241.011719 540.253906 238.746094 554.488281 233.570312 C 568.722656 228.394531 582.632812 221.925781 582.632812 221.925781 C 582.632812 221.925781 577.777344 237.128906 568.074219 249.097656 C 558.367188 261.066406 547.371094 268.183594 547.371094 268.183594 C 547.371094 268.183594 559.988281 267.214844 572.601562 263.65625 C 585.21875 260.097656 592.335938 256.539062 592.335938 256.539062 C 578.425781 281.125 552.871094 299.566406 552.871094 299.566406 Z M 552.871094 299.566406 " fill-opacity="1" fill-rule="nonzero"/><path fill="#ffffff" d="M 384 768 C 172.429688 768 0 595.894531 0 384 C 0 172.105469 172.429688 0 384 0 C 595.570312 0 768 172.429688 768 384 C 768 595.570312 595.894531 768 384 768 Z M 384 21.027344 C 183.75 21.027344 21.027344 183.75 21.027344 384 C 21.027344 584.25 183.75 746.972656 384 746.972656 C 584.25 746.972656 746.972656 584.25 746.972656 384 C 746.972656 183.75 584.25 21.027344 384 21.027344 Z M 384 21.027344 " fill-opacity="1" fill-rule="nonzero"/></svg>