<svg xmlns="http://www.w3.org/2000/svg" xmlns:xlink="http://www.w3.org/1999/xlink" width="1024" zoomAndPan="magnify" viewBox="0 0 768 767.999994" height="1024" preserveAspectRatio="xMidYMid meet" version="1.0"><defs><clipPath id="id1"><path d="M 612 520 L 767.816406 520 L 767.816406 677 L 612 677 Z M 612 520 " clip-rule="nonzero"/></clipPath></defs><path fill="#ffffff" d="M 36 462.65625 L 709.335938 462.65625 C 713.265625 439.734375 719.6875 399.175781 719.6875 384 C 719.6875 368.816406 713.265625 328.265625 709.335938 305.351562 L 36 305.351562 L 26.214844 384 Z M 729.058594 486.199219 L 15.195312 486.199219 L 2.488281 384 L 15.195312 281.796875 L 729.058594 281.796875 L 730.808594 291.484375 C 731.3125 294.296875 743.234375 360.605469 743.234375 384 C 743.234375 407.394531 731.3125 473.703125 730.808594 476.515625 L 729.058594 486.199219 " fill-opacity="1" fill-rule="nonzero"/><path fill="#ffffff" d="M 304.140625 338.574219 L 277.808594 437.839844 L 252.21875 437.839844 L 238.332031 383.082031 L 225.214844 437.839844 L 198.527344 437.839844 L 172.15625 338.574219 L 200.824219 338.574219 L 214.710938 395.707031 L 228.253906 338.574219 L 252.175781 338.574219 L 266.910156 395.816406 L 280.820312 338.574219 L 304.140625 338.574219 " fill-opacity="1" fill-rule="nonzero"/><path fill="#ffffff" d="M 438.164062 338.574219 L 411.835938 437.839844 L 386.238281 437.839844 L 372.351562 383.082031 L 359.238281 437.839844 L 332.550781 437.839844 L 306.175781 338.574219 L 334.847656 338.574219 L 348.734375 395.707031 L 362.277344 338.574219 L 386.203125 338.574219 L 400.9375 395.816406 L 414.839844 338.574219 L 438.164062 338.574219 " fill-opacity="1" fill-rule="nonzero"/><path fill="#ffffff" d="M 572.183594 338.574219 L 545.859375 437.839844 L 520.261719 437.839844 L 506.375 383.082031 L 493.261719 437.839844 L 466.570312 437.839844 L 440.199219 338.574219 L 468.871094 338.574219 L 482.753906 395.707031 L 496.300781 338.574219 L 520.21875 338.574219 L 534.957031 395.816406 L 548.863281 338.574219 L 572.183594 338.574219 " fill-opacity="1" fill-rule="nonzero"/><path fill="#ffffff" d="M 116.511719 574.703125 C 131.839844 566.453125 165.40625 550.359375 214.425781 537.59375 C 209.421875 517.4375 205.480469 496.269531 202.550781 474.425781 L 66.230469 474.425781 C 77.046875 510.996094 94.203125 544.871094 116.511719 574.703125 " fill-opacity="1" fill-rule="nonzero"/><path fill="#ffffff" d="M 382.082031 223.546875 L 382.082031 293.574219 L 509.1875 293.574219 C 505.328125 265.25 499.777344 238.949219 492.804688 215.128906 C 452.832031 220.082031 415.800781 222.644531 382.082031 223.546875 " fill-opacity="1" fill-rule="nonzero"/><path fill="#ffffff" d="M 353.460938 223.933594 C 313.585938 223.933594 279.082031 221.664062 250.644531 218.59375 C 249.429688 218.460938 248.246094 218.320312 247.039062 218.1875 C 240.476562 241.191406 235.222656 266.449219 231.53125 293.574219 L 358.664062 293.574219 L 358.664062 223.917969 C 356.925781 223.921875 355.179688 223.933594 353.460938 223.933594 " fill-opacity="1" fill-rule="nonzero"/><path fill="#ffffff" d="M 117.570312 191.914062 C 94.75 222.082031 77.222656 256.4375 66.230469 293.574219 L 202.539062 293.574219 C 206.246094 265.914062 211.625 239.367188 218.632812 214.53125 C 166.878906 206.960938 132.527344 196.878906 117.570312 191.914062 " fill-opacity="1" fill-rule="nonzero"/><path fill="#ffffff" d="M 242.128906 531.15625 C 246.261719 530.304688 250.457031 529.476562 254.765625 528.691406 C 288.644531 522.511719 323.410156 519.375 358.664062 519.292969 L 358.664062 474.425781 L 231.542969 474.425781 C 234.261719 494.398438 237.804688 513.378906 242.128906 531.15625 " fill-opacity="1" fill-rule="nonzero"/><path fill="#ffffff" d="M 244.21875 622.144531 C 235.09375 603.199219 227.199219 582.421875 220.59375 560.222656 C 177.792969 571.394531 147.203125 585.28125 131.550781 593.308594 C 173.667969 641.664062 230.078125 677.234375 294.132812 693.398438 C 275.527344 676.03125 258.640625 652.089844 244.21875 622.144531 " fill-opacity="1" fill-rule="nonzero"/><path fill="#ffffff" d="M 496.523438 622.144531 C 481.765625 652.792969 464.425781 677.140625 445.304688 694.597656 C 510.816406 679.175781 568.59375 643.503906 611.664062 594.582031 C 579.578125 581.492188 548.65625 571.394531 519.105469 563.734375 C 512.714844 584.617188 505.167969 604.199219 496.523438 622.144531 " fill-opacity="1" fill-rule="nonzero"/><path fill="#ffffff" d="M 248.214844 553.816406 C 273.394531 639.152344 316.113281 693.347656 358.664062 701.867188 L 358.664062 542.851562 C 320.835938 542.890625 287.703125 546.550781 260.140625 551.515625 C 256.078125 552.242188 252.117188 553.023438 248.214844 553.816406 " fill-opacity="1" fill-rule="nonzero"/><path fill="#ffffff" d="M 382.082031 543.28125 L 382.082031 701.867188 C 424.0625 693.464844 466.214844 640.582031 491.519531 557.195312 C 452.171875 548.738281 415.519531 544.554688 382.082031 543.28125 " fill-opacity="1" fill-rule="nonzero"/><path fill="#ffffff" d="M 382.082031 66.132812 L 382.082031 200.109375 C 413.675781 199.25 448.238281 196.914062 485.507812 192.429688 C 459.851562 119.675781 420.890625 73.902344 382.082031 66.132812 " fill-opacity="1" fill-rule="nonzero"/><path fill="#ffffff" d="M 244.21875 145.855469 C 258.640625 115.910156 275.527344 91.96875 294.132812 74.601562 C 231.105469 90.503906 175.492188 125.210938 133.601562 172.371094 C 151.003906 177.597656 182.277344 185.695312 225.625 191.863281 C 231.105469 175.597656 237.308594 160.195312 244.21875 145.855469 " fill-opacity="1" fill-rule="nonzero"/><path fill="#ffffff" d="M 254.253906 195.425781 C 282.949219 198.488281 318.019531 200.695312 358.664062 200.492188 L 358.664062 66.132812 C 319.324219 74.007812 279.832031 120.9375 254.199219 195.417969 C 254.21875 195.425781 254.234375 195.425781 254.253906 195.425781 " fill-opacity="1" fill-rule="nonzero"/><path fill="#ffffff" d="M 382.082031 519.691406 C 395.183594 520.164062 408.335938 521.03125 421.53125 522.335938 C 446.824219 524.835938 472.277344 528.917969 497.796875 534.492188 C 502.488281 515.75 506.316406 495.644531 509.207031 474.425781 L 382.082031 474.425781 L 382.082031 519.691406 " fill-opacity="1" fill-rule="nonzero"/><path fill="#ffffff" d="M 521.191406 211.269531 C 528.65625 237.03125 534.320312 264.703125 538.1875 293.574219 L 678.105469 293.574219 C 667.019531 256.136719 649.292969 221.523438 626.207031 191.175781 C 589.464844 199.789062 554.402344 206.359375 521.191406 211.269531 " fill-opacity="1" fill-rule="nonzero"/><path fill="#ffffff" d="M 496.523438 145.855469 C 502.976562 159.25 508.8125 173.570312 514.011719 188.652344 C 544.285156 184.269531 576.160156 178.476562 609.496094 170.976562 C 566.664062 123.308594 509.722656 88.5625 445.304688 73.402344 C 464.425781 90.859375 481.765625 115.210938 496.523438 145.855469 " fill-opacity="1" fill-rule="nonzero"/><path fill="#ffffff" d="M 525.433594 541.117188 C 553.3125 548.394531 581.222656 557.515625 609.054688 568.378906 L 578.863281 487.109375 L 661.703125 517.886719 C 668.183594 503.910156 673.675781 489.398438 678.109375 474.425781 L 538.210938 474.425781 C 535.105469 497.554688 530.851562 519.902344 525.433594 541.117188 " fill-opacity="1" fill-rule="nonzero"/><path fill="#ffffff" d="M 372.171875 12 C 167.046875 12 0.171875 178.875 0.171875 384 C 0.171875 589.125 167.046875 756 372.171875 756 C 475.898438 756 569.832031 713.308594 637.367188 644.589844 L 626.414062 615.105469 C 563.488281 684.269531 472.8125 727.746094 372.171875 727.746094 C 213.925781 727.746094 80.390625 620.226562 40.578125 474.425781 C 32.707031 445.59375 28.425781 415.292969 28.425781 384 C 28.425781 352.707031 32.707031 322.40625 40.578125 293.574219 C 80.390625 147.773438 213.925781 40.253906 372.171875 40.253906 C 530.414062 40.253906 663.953125 147.773438 703.757812 293.574219 C 711.632812 322.40625 715.914062 352.707031 715.914062 384 C 715.914062 415.292969 711.632812 445.59375 703.757812 474.425781 C 698.851562 492.414062 692.503906 509.800781 684.867188 526.492188 L 711.503906 536.386719 C 732.480469 489.855469 744.171875 438.265625 744.171875 384 C 744.171875 178.875 577.292969 12 372.171875 12 " fill-opacity="1" fill-rule="nonzero"/><g clip-path="url(#id1)"><path fill="#ffffff" d="M 767.808594 656.878906 L 710.203125 599.273438 L 755.503906 573.628906 L 612.109375 520.359375 L 665.382812 663.753906 L 691.019531 618.453125 L 748.628906 676.0625 L 767.808594 656.878906 " fill-opacity="1" fill-rule="nonzero"/></g></svg>